<?xml version="1.0" encoding="UTF-8"?>
<svg version="1.1" viewBox="0 0 2048 2048" width="1280" height="1280" xmlns="http://www.w3.org/2000/svg">
<path transform="translate(0)" d="m0 0h2048v2048h-2048z" fill="#FDFDFD"/>
<path transform="translate(931,943)" d="m0 0h7l15 4 9 5 6 5 1-9 26-1 2 2v123l-3 20-3 8-6 11-9 10-9 7-10 4-14 3-11 1-15-2-13-5-11-8-4-3v-2h-2l-8-11-4-7v-2l21-9 5 1 9 12 5 4 10 4h17l11-4 8-7 4-7 2-7 1-17v-5l-9 8-7 4-14 3h-11l-11-2-12-5-11-8-10-10-6-9-6-15-2-14v-8l3-14 5-13 3-6h2l2-4 11-12 9-6 14-5z" fill="#4886ED"/>
<path transform="translate(464,870)" d="m0 0h20l19 3 7 3 10 4 11 6 13 11-1 4-13 13-5 4-10-8-12-6-8-3-10-2h-18l-18 4-15 8-4 3h-2v2l-8 7-8 11-5 10-3 10-2 10v17l3 16 7 15 8 11 7 7 8 6 15 7 11 3 6 1h19l16-4 16-8 10-9 9-15 3-10 2-9h-67v-28h94l1 1 1 13v14l-2 13-4 13-5 11-5 9-14 15-11 9-15 7-10 3-6 2-14 2h-17l-15-2-7-2-15-5-14-8-13-10-8-8-12-17-6-12-5-16-3-16v-14l4-20 5-14 7-14 7-9 12-13 12-9 8-5 16-7 16-4z" fill="#4886ED"/>
<path transform="translate(781,943)" d="m0 0h19l16 4 14 7 10 8 8 10 6 12 3 11 1 8v14l-2 11-4 12-9 14-7 7-10 7-11 5-16 3h-15l-9-1-12-4-12-7-12-11-5-7-4-7-5-17-1-14 1-13 4-12 8-14 9-10 10-7 7-4z" fill="#F5C30E"/>
<path transform="translate(1638,950)" d="m0 0h9l14 4 12 7v2l4 2 3 3v2h2l6 8 5 12 3 11v25l-4 14-5 10-8 10-4 4h-2v2l-10 6-7 3-9 2h-17l-13-4-10-7-6-6v-2l-2 1v66l-2 1h-19l-1-1v-170l1-1h20v16h3l2-5 10-8 12-5z" fill="#767676"/>
<path transform="translate(636,943)" d="m0 0h21l17 5 8 4 13 10 7 8 8 16 3 10v25l-4 15-6 11-12 13-9 7-11 5-8 3-10 1h-13l-15-3-12-5-10-7-8-8-7-10-5-12-2-6-1-11-1-3v-7l1-2 1-9 7-17 8-11 7-7 5-4 11-6 9-3z" fill="#DB3234"/>
<path transform="translate(1257,899)" d="m0 0h21l5 8 9 15 8 14 6 11 15 27 7 11 8 14 2 6 3-3 9-16 16-28 9-16 9-15 7-12 6-11 2-4 2-1h21l1 4v162l-1 8h-21l-1-1v-112l1-18h-2l-2 5-14 25-8 14-9 16-7 12-6 11-7 11-3 1-10-1-6-8-6-12-12-20-6-11-24-42-2-1 1 3v128h-22v-173z" fill="#767676"/>
<path transform="translate(1111,943)" d="m0 0h18l10 3 9 4 11 8 10 11 9 17 1 8-21 9-16 6-5 3-14 5-16 7-13 5-2 2v2h2l6 8 2 1v2l5 1 7 3h18l10-4 7-5 5-7 5 1 18 12 1 4-14 14-16 9-10 3-8 1h-14l-15-3-16-8-12-11-7-10-4-8-3-10-1-6v-23l4-15 6-11 6-8 5-5 8-6 12-6z" fill="#DB3234"/>
<path transform="translate(1492,950)" d="m0 0h12l14 2 16 8 7 6 6 8 5 13 1 10v69l-1 7h-20l-1-1v-15h-2l-2 5-10 9-8 4-12 2h-12l-11-2-10-5-10-9-6-12-1-5v-13l2-9 5-8 8-8 14-7 11-3 7-1h9l15 2 13 5-1-11-4-8-8-7-10-4-10-1-12 3-9 6-5 7-9-2-12-6 4-8 7-8 10-7 10-4z" fill="#767676"/>
<path transform="translate(1752,950)" d="m0 0h15l12 3 9 4 8 6 7 8 2 4v4l-17 7-10-10-4-3-7-2h-15l-10 4-5 6v9l4 5 7 3 29 7 13 5 8 6 7 9 3 11v11l-4 9-6 8-7 6-10 5-14 2h-14l-13-3-9-4-13-11-7-10-1-6 10-5 7-3h3l5 10 8 7 6 3 5 1h14l9-3 5-4 2-4v-8l-3-6-6-4-5-2-27-6-12-5-10-8-5-5-3-9v-12l5-12 9-9 14-6z" fill="#767676"/>
<path transform="translate(1017,876)" d="m0 0h27l1 1v194l-1 1h-28l-1-4v-190z" fill="#767676"/>
<path transform="translate(1629,971)" d="m0 0h15l10 4 8 6 7 9 4 10 1 5v17l-4 13-6 9-9 8-10 4-5 1h-10l-11-4-6-4-9-10-5-12-1-7v-11l3-15 8-12 8-6 7-4z" fill="#FDFDFD"/>
<path transform="translate(638,970)" d="m0 0h16l11 4 9 7 4 5 5 13 1 6v12l-3 10-6 10-8 7h-3v2l-9 3h-17l-9-4-9-7-6-8-4-10-1-7v-8l2-9 6-12 7-7 6-4z" fill="#FDFDFD"/>
<path transform="translate(785,970)" d="m0 0h11l9 2 11 7 8 10 4 11v17l-3 10-6 10-8 7-12 5h-15l-11-4-9-7-6-10-4-12v-14l3-9 3-6 9-10 11-6z" fill="#FDFDFD"/>
<path transform="translate(935,969)" d="m0 0 10 1 10 5 6 5 6 9 3 8 1 7v11l-2 10-6 12-9 8-10 4-16 1-12-5-7-6v-2h-2l-6-10-3-13 1-13 4-12 7-9 6-5 8-4z" fill="#FDFDFD"/>
<path transform="translate(1498,1014)" d="m0 0 18 1 9 3 6 4v7l-4 10-9 10-10 6-9 2-13-1-10-5-5-6-1-7 2-9 6-8 6-4 5-2z" fill="#FDFDFD"/>
<path transform="translate(1117,969)" d="m0 0h9l9 3 9 8-1 4-9 4-20 8-14 6-9 4h-5l1-11 5-10 2-3h2v-2h2v-2l9-6z" fill="#FDFDFD"/>
</svg>
