<?xml version="1.0" encoding="UTF-8"?>
<svg version="1.1" viewBox="0 0 2048 1529" width="1280" height="1280" xmlns="http://www.w3.org/2000/svg">
<path transform="translate(0)" d="m0 0h2048v1529h-2048z" fill="#FDFDFD"/>
<path transform="translate(898,717)" d="m0 0 12 1 11 4 6 3 7 6v-9l1-1h24l2 2v119l-2 14-2 8-7 14-9 10-9 7-10 4-13 3h-17l-13-3-16-9-12-12-7-13 6-4 13-5 5-1 10 13 10 6 8 2 14-1 10-4 8-8 5-13 1-19-14 10-9 3-7 1h-10l-10-2-14-6-11-8-8-9-8-14-4-14v-20l3-12 4-10 8-11 10-10 12-7 14-4z" fill="#4785ED"/>
<path transform="translate(450,647)" d="m0 0h20l17 3 14 5 16 9 10 9-2 4-15 16-4-1v-2l-4-2-14-8-14-4-4-1h-17l-14 3-12 5-12 8-7 6-7 10-5 10-4 11-2 11v14l3 13 4 12 8 13 10 10 11 7 10 5 12 3 19 1 13-2 15-6 9-6 9-9 6-10 4-12 1-8h-64v-26l1-1h89l2 2 1 20-2 16-5 17-8 15-12 14-11 9-16 8-11 4-9 2-9 1h-17l-14-2-7-2-12-4-15-8-13-10-8-8-10-14-7-14-5-16-2-10v-24l5-19 7-16 8-12 13-14 13-10 21-10 15-4z" fill="#4785ED"/>
<path transform="translate(757,717)" d="m0 0h15l18 5 13 7 10 9 7 10 5 12 2 7 1 8v13l-2 11-5 13-8 12-5 5-8 6-14 7-16 3h-11l-10-1-12-4-9-5-10-8-7-8-6-10-5-17v-24l6-16 7-11 7-8 10-7 7-4 9-3z" fill="#F5C30E"/>
<path transform="translate(618,717)" d="m0 0h14l14 3 12 5 12 9 8 9 5 9 4 10 1 5 1 19-2 14-5 12-6 9-8 9-10 7-15 6-12 2h-12l-15-3-13-6-9-7-9-9-8-14-3-10-1-10v-13l2-11 6-14 6-8 5-6 8-6 10-6 14-4z" fill="#DA3235"/>
<path transform="translate(1577,724)" d="m0 0h7l14 4 12 7 8 8 7 10 6 16 1 7v18l-4 16-6 11-7 9-11 9-12 5-16 2-13-2-9-4-11-8-4-4v63l-1 1h-20v-163l1-1h19v15h3l2-5 11-8 10-4z" fill="#747575"/>
<path transform="translate(1210,676)" d="m0 0h22l7 13 14 24 11 20 12 20 6 11 7 12 4-4 13-24 11-18 5-10 14-24 11-19 1-1h21v166h-20l-1-4v-95l1-27-3 3-13 23-9 16-8 14-9 16-10 17-4 2-10-1-8-13-12-22-16-28-14-24-3-3 1 17v108l-1 1h-20z" fill="#747575"/>
<path transform="translate(1071,717)" d="m0 0h15l11 3 10 4 9 7 7 7 7 11 6 14v3l-24 10-26 11-11 4-12 5-9 4h-2l6 9 8 6 8 3h17l10-4 9-8 4-4 20 13 1 4-13 13-14 8-11 4-8 1h-13l-11-2-11-4-10-6-10-9-6-9-6-13-2-9v-25l3-12 7-13 8-10 11-8 13-6z" fill="#DB3234"/>
<path transform="translate(1437,724)" d="m0 0h11l12 2 12 5 10 8 6 7 5 12 1 5v78l-1 1h-18l-1-1v-14l-5 5-9 8-9 4-4 1h-23l-13-5-12-11-4-8-2-9v-8l2-10 4-8 10-9 12-6 12-3h16l13 2 12 4-2-13-3-5-4-5-6-4-11-3h-9l-10 3-7 5-5 7-9-2-10-5 1-5 9-10 7-6 12-5z" fill="#747575"/>
<path transform="translate(1686,724)" d="m0 0h14l11 3 10 4 9 7 6 9-1 5-12 5h-5l-6-8-8-4-3-1h-16l-9 4h-2l-3 6v8l5 6 13 4 25 6 12 6 7 7 5 9 1 4v13l-4 10-9 10-12 6-8 2h-24l-15-5-13-11-7-10-2-5 4-3 12-5 4 1 5 9 7 6 6 3 6 1h12l9-3 5-5 2-4-1-9-4-5-9-4-28-7-12-6-9-7-4-7-2-9 1-9 6-12 7-6 13-6z" fill="#747575"/>
<path transform="translate(981,653)" d="m0 0h24l2 1v186l-1 1h-26l-1-1v-185z" fill="#3CBA54"/>
<path transform="translate(1571,743)" d="m0 0h9l11 4 8 6 8 10 4 13v18l-4 13-7 9-9 7-8 3-13 1-10-3-9-6-8-9-4-10-1-7v-13l3-13 6-10 8-7 8-4z" fill="#FDFDFD"/>
<path transform="translate(755,743)" d="m0 0h17l12 6 7 6 6 10 3 14-1 11-4 11-7 9-4 4-8 4-4 1h-16l-8-3-6-4-5-4-7-13-2-7v-15l4-11 6-8 7-6z" fill="#FDFDFD"/>
<path transform="translate(619,743)" d="m0 0h13l11 4 8 6 7 12 2 6v20l-4 11-9 10-8 5-6 2h-16l-14-7-8-9-4-9-2-10 1-14 7-14 10-9 8-3z" fill="#FDFDFD"/>
<path transform="translate(894,743)" d="m0 0h17l10 5 9 9 4 8 2 7v15l-2 10-7 12-11 8-6 2h-17l-12-6-8-8-5-11-1-6v-11l2-10 6-12 8-7z" fill="#FDFDFD"/>
<path transform="translate(1441,785)" d="m0 0 18 1 10 3 5 4-1 10-5 9-9 9-8 4-5 1h-15l-10-5-5-6-1-3v-8l5-10 9-6 5-2z" fill="#FDFDFD"/>
<path transform="translate(1076,742)" d="m0 0h9l8 3 7 5 2 3v3l-21 9-26 11-5 2h-3v-8l4-10 6-8 8-6 6-3z" fill="#FDFDFD"/>
</svg>
