<?xml version="1.0" encoding="UTF-8"?>
<svg version="1.1" viewBox="0 0 2048 1529" width="1280" height="1280" xmlns="http://www.w3.org/2000/svg">
<path transform="translate(0)" d="m0 0h2048v1529h-2048z" fill="#FEFEFE"/>
<path transform="translate(882,741)" d="m0 0h16l14 5 7 6v-7l1-1h21l1 1v102l-2 16-8 16-10 10-12 6-12 3h-13l-12-3-12-6-10-9-7-11-1-3 4-3 11-4 1-1h5l8 11 7 4 5 2h14l10-4 7-8 3-9v-16l-11 8-5 2-8 1h-9l-10-2-14-7-10-9-7-10-5-14-1-8v-9l4-16 5-10 11-12 11-7z" fill="#4886ED"/>
<path transform="translate(507,681)" d="m0 0h19l12 2 13 5 13 7 9 8-2 4-8 9-6 4-8-6-12-6-12-3h-17l-13 3-13 7-10 9-5 6-6 12-3 9-1 7v14l2 10 4 11 7 11 8 8 5 4 13 6 12 3h18l14-4 12-6 9-9 7-14 2-11-54-1v-22l1-1h75l2 1 1 19-2 16-6 16-7 11-11 12-12 8-12 5-11 3-9 1h-15l-16-2-15-6-11-6-11-9-9-10-8-13-5-12-4-16v-21l5-19 7-14 7-9 9-10 14-10 15-7 11-3z" fill="#4886ED"/>
<path transform="translate(769,740)" d="m0 0h12l14 4 12 6 10 9 7 11 4 11 1 8v12l-2 12-6 12-5 7-8 7-8 5-11 4-8 1h-12l-12-2-13-6-8-6-6-7-5-8-5-16v-20l6-16 10-13 11-8 9-4z" fill="#F5C30E"/>
<path transform="translate(1459,747)" d="m0 0h18l12 5 10 8 8 11 5 13 1 5v18l-4 14-6 10-8 9-10 6-9 3-4 1h-10l-12-3-11-7-5-5v54h-18v-139h17v13l5-5 7-6 10-4z" fill="#757575"/>
<path transform="translate(647,741)" d="m0 0h18l12 3 10 5 10 9 6 7 5 11 2 8v22l-4 13-9 13-8 7-16 8-11 2h-11l-16-4-8-4-8-6-7-8-6-10-3-10-1-8v-10l3-14 5-10 9-10 6-5 8-5z" fill="#DB3235"/>
<path transform="translate(1155,705)" d="m0 0h17l14 24 13 23 14 24 6 10 2 4 2 1 2-5 15-27 12-21 15-25 4-7 1-1h17l1 3v133l-1 5-16 1-1-1-1-106-13 23-12 21-13 23-6 9-2 1-9-1-11-19-13-23-10-17-9-16-2-1 1 14v92l-17 1-1-1v-140z" fill="#757575"/>
<path transform="translate(1034,741)" d="m0 0h16l13 4 11 7 7 8 6 10 4 9v3l-24 10-10 4-27 11-7 3h-3l3 7 7 6 7 3h17l10-5 7-8 5 2 12 8 2 4-11 11-14 8-14 3h-10l-12-2-9-4-11-7-8-9-7-15-2-15 1-15 3-10 6-11 7-8 12-8z" fill="#DB3235"/>
<path transform="translate(1343,747)" d="m0 0h19l13 4 11 8 6 9 3 8 1 6v63l-1 1h-16v-12h-3l-2 4-5 5-12 6-7 1h-8l-13-3-9-6-7-8-3-8v-14l4-11 8-8 12-6 14-3 13 1 10 2 7 2-1-10-5-8-9-5-3-1h-13l-10 4-7 8-6-1-10-5 2-6 6-7 9-6 7-3z" fill="#757575"/>
<path transform="translate(1556,747)" d="m0 0h19l12 4 9 7 6 9-1 3-12 5-4-2-5-6-7-3-11-1-8 2-6 4-2 5 1 6 5 4 14 4 16 4 12 6 7 8 3 8v12l-5 10-7 7-10 5-12 2h-9l-13-3-8-4-10-9-6-10 4-4 10-4 3 1 6 9 5 4 5 2 12 1 9-2 6-5 1-8-3-6-7-4-28-7-11-7-7-8-2-6v-9l4-10 7-7 11-5z" fill="#757575"/>
<path transform="translate(958,687)" d="m0 0h23v158h-23z" fill="#757575"/>
<path transform="translate(1458,763)" d="m0 0h12l10 4 8 7 5 8 2 7v17l-3 10-6 8-7 6-7 3h-16l-10-5-7-7-4-7-2-10v-11l3-12 6-9 8-6z" fill="#FEFEFE"/>
<path transform="translate(652,762)" d="m0 0h9l11 4 10 9 5 13v14l-4 10-4 6-9 7-6 2h-15l-12-6-6-7-3-5-2-7v-15l4-10 4-6 8-6z" fill="#FEFEFE"/>
<path transform="translate(774,762)" d="m0 0 10 2 7 3 6 5 6 10 2 11-1 11-4 9-8 9-7 4-4 1h-13l-10-4-6-5-6-11-2-10v-8l4-12 8-9 10-5z" fill="#FEFEFE"/>
<path transform="translate(890,762)" d="m0 0 11 1 9 5 7 8 4 11v13l-2 9-6 10-10 7-4 1h-15l-10-5-8-9-3-7-1-6v-8l2-10 6-10 7-6 7-3z" fill="#FEFEFE"/>
<path transform="translate(1351,798)" d="m0 0 16 1 10 4 2 2-2 10-5 8-8 7-9 3h-13l-10-5-4-8 2-10 7-8 7-3z" fill="#FEFEFE"/>
<path transform="translate(1041,761)" d="m0 0 9 1 8 4 5 5-1 3-45 19-2-1 1-11 6-9 8-7z" fill="#FEFEFE"/>
</svg>
