<?xml version="1.0" encoding="UTF-8"?>
<svg version="1.1" viewBox="0 0 2000 1600" width="1500" height="700" xmlns="http://www.w3.org/2000/svg">
<path transform="translate(0)" d="m0 0h2048v2048h-2048z" fill="#FCFCFC"/>
<path transform="translate(1019,487)" d="m0 0 150 1 18 1 12 3 14 7 7 8 8 15 3 8v18l1 4 1 34 1 190-1 63v284l-1 45-1 13-1 200v16l-1 24-3 14-7 12-11 13-10 5-7 2-9 1h-357l-18-2-12-5-9-7-5-8-6-15-2-12-1-147-2-58v-281l1-205v-186l1-13 3-13 5-8 8-8 12-7 10-3 7-1 42-1z" fill="#FCFCFC"/>
<path transform="translate(1019,487)" d="m0 0 150 1 18 1 12 3 14 7 7 8 8 15 3 8v18l1 4 1 34 1 190-1 63v284l-1 45-1 13-1 200v16l-1 24-3 14-7 12-11 13-10 5-7 2-9 1h-357l-18-2-12-5-9-7-5-8-6-15-2-12-1-147-2-58v-281l1-205v-186l1-13 3-13 5-8 8-8 12-7 10-3 7-1 42-1zm-210 24-13 5-7 6-6 11-2 10v868l3 12 6 10 8 6 8 3 6 1h379l11-3 8-5 7-8 4-11v-877l-4-12-8-9-9-5-7-2z" fill="#1C1B1B"/>
<path transform="translate(781,863)" d="m0 0h1l1 14-1 11h16l3 4h-13l5 6 8 7 14 12 9 8 10 8-12-12v-7l9 3 14 12 9 8 1 7 8 1-1 2 5 2 1 1 1 10-4 1 1 3 12 2 7 5 7 3 3 5v2h-16l2 5 20 2v2h-16l1 6 15 1 1 8 10 2 1 3-10 1 3 5 9 1 1 5-2 7-5 2-1 9 5 1 1 5-1 1-7 1v12l4-1 1-2 4 1 1 2h20l7 1 1 4h-4v5l-4 1-25 1v7h22l1 2v10l-1 1h-26l-2 5-1 1-2 13-9 35-7 28-8 37-1 2v7l33 1 10 1 1 1v8l-1 1-42 1 2 3-1 5-2 4 1 10 2 10v5l-4 1 1 8-6 2-2-6h-6l-1 5-10 2-6-1-2-2v-53l-9 5-24 15-7 5-1 14-5 3-13 4-2 1v50l-1 88h-1z" fill="#9CC0F6"/>
<path transform="translate(863,485)" d="m0 0h297l29 1 14 4 10 6 6 5 7 10 6 12 2 9 3 2v2l4 2 7 10 6 12 8 24v806l-5 11-3 10-9 15-5 5-3 1v2l-7 6-5 5-8 10-9 7-11 5-11 2h-366l-13-2v-1l18 1h357l13-2 10-4 5-4 10-13 6-12 2-11 1-24v-35l1-181 1-13 1-45v-284l1-66-1-187-1-34-1-4v-18l-3-8-8-15-6-7-14-7-12-3-22-1-146-1-160 1-42 1-14 3-12 6-10 9-5 8-3 13-1 13v192l-1 199v281l2 58 1 147 2 12 8 19 2 4-5-4-8-16-2-9-1-9-1-50v-828l2-14 4-11 6-9 7-7 12-7 16-4z" fill="#ABACAE"/>
<path transform="translate(813,495)" d="m0 0h374l14 4 11 8 7 9 4 10 1 4v889l-3 14-5 9-8 7-7 5-11 4-6 1h-366l-12-3-12-5-7-8-6-11-2-9-1-16v-875l4-13 6-10 10-8 11-5zm-4 16-13 5-7 6-6 11-2 10v868l3 12 6 10 8 6 8 3 6 1h379l11-3 8-5 7-8 4-11v-877l-4-12-8-9-9-5-7-2z" fill="#090808"/>
<path transform="translate(999,809)" d="m0 0 4 2 4-2h6 4l6 2 4-2 3 2 2-2h8l2 3-1 5h-5l-1-3 1-3-2 1-3 9-3 5-3 12 6-3h6l4-1 1 1v5l-1 1-11 1-6 4-1 2 5-2 4-2h9l1 6-1 9-10 4-8 4-4-2-4 10 3-2h4l6 10v3l-4-1-3-3v-2l-7 2h-1l-3 13 4 1v3h-3v10l-3 11-3 2 1 3v13l5 13 4 6 2 5 3 3v2h2l3 5v6l3 1 1 6 4 2 4 4 1 9h2l2 6 5 2 6 10v2h2l13 22 6 9 5 5 9 11 6 7v2h2v3h2v2l3 1v2h4l5-2 7 1 6 5 1 2v9l-6 9-4 8h2l3 6 1 10 1 2v7l8 1 5 5 1 7 2 3-2 4-1 6h-2l1 13 4 10 4 5-1 11-1 1-25 1v12l-1 21 2 22 1 2v6h4l1 11-3 6-3 3-8-1-4-8v-11l-2-17-1-2-1-12-4-14-2-11-2-7-2-2-1-5h-1v16l-2-1v5l-5 1-2-2 2-1-2-2-3-10 4-5 1-9-7-2 1 1 2 5 2 4-6 2 1-3-4-4-1-4-4-4v-3l-3-9 1-1h6l-1 4-1 2h3l2 2 7-1 4-4 10-4 1-2h2l2-5 1-10 1-2 1-14-19-1-3-7v-4l9-2 3-1-1-1v-5l5-4 1-7h-2v-2l-7-3-1-1-1-7v1 11h-3l-1-4-1 5h-6l-1-5v-3l-2-1 1 2v6l1 1h13l1 1-1 7-7 1-2-1v-2l-6 3h-6l-1-3-5 3h-6l-5-4v2l-3 1v-2l-4 1-4-2-1-5-3-2v10h-3v2h6l1 1v5h-2l-1-4-2 5h-2v-3l-2 1 1 2h-5l-1-1v-5-2l-1-2v-6l2-2 1-8 6-1 2 2 1 4 3-2-2-2 3-2 9-1 1 4v7h1l1-12 1-1-3-2 1-2 12-1h16l12-1v-3l-4 1-1-6-2-1 1 8-3-1-1-10-11-12-8-11v-3l-5-2-5-5-5-8v-1l-6-2-4-5v-9l1-2-3-1-5-9-6-10-3-7-3-4-1 5-4-1v-14h-2v12 3l-2 1-3-1-1-2-1-9h-2v7l1 4-3 1-3-2-1-10v-4l2-3 3 1 1 2h2l4-4-3-6-4-7v-4l-4-1-4-8-1-7 1-2-7-2-9-17-7-10 1-5 5-3h3l1 1v-10l5-6 3-1h7l5 3 2-9 2-6 6-24 3-9 2-10 1-1 1-8 1-4h-2l-1-5-2 4-2 1-1-5-2 5-1-4-5 1v2l2 1-4-1-1-4z" fill="#F9F6E3"/>
<path transform="translate(1233,532)" d="m0 0 4 2v2l4 2 7 10 6 12 8 24v806l-5 11-3 10-9 15-5 5-3 1v2l-7 6-5 5-8 10-9 7-11 5-11 2h-366l-13-2v-1l18 1h357l13-2 10-4 5-4 10-13 6-12 1-4h2l1-21 2-3 1 8 5-5 6-14 3-13 2-21 1-21v-119l-1-65v-310l-1-229-1-19-3-17-6-17v-2h-2l-2-5z" fill="#BDBDBE"/>
<path transform="translate(864,678)" d="m0 0h11v20l-1 5v12l7 1v5l5 2-2 10 1 8-1 2v8l-5-2-1-5v-13l1-4-1-4-7 1v12l-4 1v2h-2l-1 3-1 80v10l1 11v2l5 1 2 3-1 6v2l4 1 1 2v6l-4 3 2 9 4 7 6 10 4 2 11 9 5 7-3 1 4 2 3 9 6 3v3l-6 1 7 1-2 2-1 9 1 2 8 3 1 3-4 4 8-4 3 1 9 15-2 3v7h8l5 8-1 2-6 3h-2l1 3 5-2 6 6-2 4-3 1 2 12 3 9 2 9 1 1v6l8-5 2 2v12l1 5v5l-5-2-2 2-1-1v-9l-3 3 1 3h-3v2h4v2h4l4 2v18l-3-2-2-8h-5l1 23-1 8 5-1 3 3-1 6-1 1h-6l2 13 2 16 1 2 1 19-1 33-1 1h-6l-2 10-3 12-6 16-3 7-4 13-5 15-4 9-4 13-2 5-1 10 1 4v7h-2l3 6 7-1 1 3-17 2h-3l-1-6-1-7h-2l-1 3-4 1-2 3-1-1v-12h7l2 2 2-3v-19l6-14 9-18 5-13 2-7 3-9 1-8h2v-6l4-10 1-9 4-9 1-4 1-20 1-24-1-2-2-16v-7h-5l-1-5 1-4 4-1v-32l2-8h-4v-10l3-1-4-15-2-7-1-9-3-3 1-3-6 3h-5-3l-1-1v-6l9-6-1-2-5-3-1-6 1-2h-2l-3-5-5-4-1-4 1-2-3-7v-3h-2l-3-3 1 9 1 5 3 5 2 1 3 7 2 5-2 3 2 10-4-4-8-12-3-5-11-18-2-3 2-1h7l-7-11-9-2-3-4 5-2h4v-10l2-1-4-3-4 1-4 2-7-3-2-2 8-1 4 1h2v-2h-3l-2-4-2-1v-5l-9-1 4-7-5-2-3-4 2-3 3-1-4-6-8-7-1-3-5-2-8-8 4-6 4-1 7 5-2-5-4-2 3-6 1-1-1-7-2-5-1-11v-42l1-49 4-15 1-2h-2l-1-5 5-2 2-9 2-10z" fill="#F9F5E3"/>
<path transform="translate(940,1065)" d="m0 0h4l-1 34-4 1v8l5 1 2 11 1 12 1 4-1 29-1 13-4 12-1 4-2 7-3 9-1 6h-2v8l-4 10-2 8-5 12-5 11-6 12-3 8v20h-2l-1 3-2-2-7-1-1 4-3-4h-11l-1 4-6-6 3-3h2v-3h-15v3l5 1-2 1-5 1h-3l-4-1-1 3-6-1 4-2-5-7 3-3 3 1-1 4 1 2h7l2-3 1-12h1l1 9 2 1 1-9 2-1v7l1 2 5 1 3-3h-3v2l-4-1v-2l7-2-1-4-6-1 1-3 3-1v-8l4-1-4-19v-6l3-6-1-6 8-1 34-1v-8l-10-1-33-1-1-1v-7l3-12 11-48 11-42 2-13 4-6 26-1v-12l-4 1h-18l-1-1v-7l1-1 29-1z" fill="#FCFCFC"/>
<path transform="translate(1180,742)" d="m0 0 4 2 4 8 17 1 1 1 1 13v24l-1 7-8 2-81 1-14-1h-73l-10-1-2-1v-44l1-1 114-1z" fill="#2196F3"/>
<path transform="translate(809,511)" d="m0 0h384v1h-32v5l-3 1-6 1-2 1h-7l-1-7-53-1-1 11 4 1-2 9h-2v-7h-2l1 5v11l-1 2h-2l1 4 2-3h2l-3 9-3-3-1-2-2 5h-6l-2-4 2-2h3l-5-1-2 7-3-1v-7l3-3v-8l1-2h-7l-1-7 2-2h4v-3h3v-6l1-2-58-1 3 5 6 7h5l1 3h2l1-3h5l1 5-4 2h3v2h-5l-2-3-1 1-1 3h-5-3l-7-1-2-3 1 4 10 5 1 2 7-1 4 2v2h5l1 2 4-2 4 1 1 5h-5v2h5l-1 2h-5l-3-4h-4v2l4 1-2 6h-8l-4-1-5 1-6-3-5-4 4 6-1 1h-100l-1-1-1-11-1-2-3-1 1-26-1-3 1-3h-48l2 7 2 1 1 6v28h-19l-2-4-1-7-3-4 11-3 2-9v-5l-7-2v-7h-11v3 3l-5-1-1-3 2-2-23-1z" fill="#9CC0F5"/>
<path transform="translate(1223,1412)" d="m0 0h1l-1 14-4 11-4 6-7 6-7 5-11 4-6 1h-366l-12-3-12-5-7-8-6-11-2-9v-8h2l5 13 5 5 9 6 12 3h379l11-3 8-5 6-7 1-2h2l3-12z" fill="#030303"/>
<path transform="translate(999,809)" d="m0 0 4 2 4-2h6 4l6 2 4-2 3 2 2-2h8l2 3-1 5h-5l-1-3 1-3-2 1-3 9-3 5-3 12 6-3h6l4-1 1 1v5l-1 1-11 1-6 4-1 2 5-2 4-2h9l1 6-1 9-10 4-8 4-4-2-4 10 3-2h4l6 10v3l-4-1-3-3v-2l-7 2h-1l-3 13 4 1v3h-3v10l-3 11-3 2 1 3v13l5 13 4 6 2 5 3 3v2h2l3 5v5l-7 3-3 7-1 5-4-1v-14h-2v12 3l-2 1-3-1-1-2-1-9h-2v7l1 4-3 1-3-2-1-10v-4l2-3 3 1 1 2h2l4-4-3-6-4-7v-4l-4-1-4-8-1-7 1-2-7-2-9-17-7-10 1-5 5-3h3l1 1v-10l5-6 3-1h7l5 3 2-9 2-6 6-24 3-9 2-10 1-1 1-8 1-4h-2l-1-5-2 4-2 1-1-5-2 5-1-4-5 1v2l2 1-4-1-1-4z" fill="#F9F5E3"/>
<path transform="translate(1160,1227)" d="m0 0h16l13 7v2l4 2 6 9 2 7 1 10-3 12-6 9-8 7-9 4-4 1h-12l-12-5-9-8-4-7-3-9v-13l4-11 9-10 8-5z" fill="#2196F3"/>
<path transform="translate(781,543)" d="m0 0h1l1 157h28l4 2 1 13 9 3 1 1v15l-3-3-3-5-3-2-6-2-8 3-4 5v10l2 4-1-4-1-1v-7l2-4 5-4h10l6 5 1 3v7l-3 6-6 7-1 4-3-1-1 4 5-2 1-4h7v3h2l-2 5-9 12-5 5-6 7-2 4-17 1-1 62 5 1 1 1v8l-6 1-1-10z" fill="#F8F5E3"/>
<path transform="translate(863,485)" d="m0 0h297l29 1 14 4 10 6 6 5 7 10 6 12 1 4v13l-1 1-1 7h-1v-18l-3-8-8-15-6-7-14-7-12-3-22-1-146-1-160 1-42 1-14 3-12 6-10 9-5 8-3 13-1 13v192l-1 199v281l2 58 1 147 2 12 8 19 2 4-5-4-8-16-2-9-1-9-1-50v-828l2-14 4-11 6-9 7-7 12-7 16-4z" fill="#A8ACAF"/>
<path transform="translate(948,1098)" d="m0 0 4 2-2 6h2l1-5 3-2 4 1 2 2-1 6-1 1h-6l2 13 2 16 1 2 1 19-1 33-1 1h-6l-2 10-3 12-6 16-3 7-4 13-5 15-4 9-4 13-2 5-1 10 1 4v7h-2l3 6 7-1 1 3-17 2h-3l-1-6-1-7h-2l-1 3-4 1-2 3-1-1v-12h7l2 2 2-3v-19l6-14 9-18 5-13 2-7 3-9 1-8h2v-6l4-10 1-9 4-9 1-4 1-20 1-24-1-2-2-16v-7h-5l-1-5 1-4 5-1 2 1 1 8v-8z" fill="#F9F5E2"/>
<path transform="translate(1206,791)" d="m0 0h1v8l-3 4-4 2h-55l-12 1-1 5-1 25-6 3-1 1h-10l-1-1-1-29-2-4-8-1v12h-5l-3-3h-3v2l2 1-6-1-5 1h-3l-5-1-2-1-1 2h-6l-2-2 1-5 4-1 2 1v-4l3 1 1 3 4-1 3 2 2-2 4 1 1 1 2-2 6 1 4-1v-3l-7 1-1-1h-32l-17-1-4 2-7-2-2 2-1-4-2-1v2l-4-1-2-1v-2l-3-1 2-1 10 1h77l15 1 76-1 8-1z" fill="#ACADAE"/>
<path transform="translate(978,1128)" d="m0 0h17l6 4h5l2 6 1 5v13l-6 35-1 1h-21l-2-1-1-8z" fill="#A9D7B6"/>
<path transform="translate(1e3 678)" d="m0 0h15l2 2 1-2h13v74l-1 1h-12l-1-1-1-59h-8l-12 4-4 2-12 1-2 1h-14v-8l4-3 15-4 8-3z" fill="#F9F5E2"/>
<path transform="translate(864,845)" d="m0 0 5 1 2 3-1 6v2l4 1 1 2v6l-4 3 2 9 4 7 6 10 4 2 11 9 5 7-3 1 4 2 3 9-5-1-6 2h-5l-1-1v-5l-3 2h-4v3h-3l-2-4-2-1v-5l-9-1 4-7-5-2-3-4 2-3 3-1-4-6-8-7-1-3-5-2-8-8 4-6 4-1 7 5-2-5-4-2 3-6 3-1 1-7h3z" fill="#FAF6E3"/>
<path transform="translate(911,619)" d="m0 0h87l-1 4-7 2-1 9-12 1-8 4-6 8-2 12-5 5-3 4-2 9h-8l6-7 4-11-1-9-5-10-5-2-4-4-1-5-2-1-2 7h-8l-2-1h-10l-3-14z" fill="#9FC2F5"/>
<path transform="translate(1128,838)" d="m0 0 4 1-2 6 4 1 1-7h7v2h11l1 3-1 2h-6v-3h-2l-1 4 1 9-2 2h-9v11l5 1 1-2 4 2 1 7-3 5-9 5-8-1-2 6-10 8h-2v9h-2l-1-6-2-1v6h-3v-11l6-5 1-7v-4h-3v-10l12-1h2l1-1v-10l-3-1h-12v-14h19z" fill="#FAF6E3"/>
<path transform="translate(863,485)" d="m0 0h297l29 1 14 4 10 6 6 5 7 10 6 12 1 4v13l-1 1-1 7h-1v-18l-3-8-8-15-6-7-14-7-12-3-22-1-146-1-160 1-43 1 1-3 34-1z" fill="#A8B2BA"/>
<path transform="translate(1196,513)" d="m0 0 6 1 9 6 7 9 3 10v390h-1l-1-59h-1l-1 6h-7v-14l9-1v-21l-12 6-3-4 1-3 4 2v-4l5-1 3-1 2-4v-66l-1-2-2 2-1-5h-1l-1 5-2-4-1-3h7l3 2v-138l-5-2-2 2-1-1v-7l-2 1-2 7-2-1v-8l5-2 1-3 3 1 1 4 3-1-1 5 1 2v-78l-3-13h-2l-2 6-4 9-12 1-2 5-4-2-2-3 1-10 2-3 4-2 4-11v-3z" fill="#ACADAE"/>
<path transform="translate(935,708)" d="m0 0h7l1 1 1 9 6 4-1 5-4 2 4 2 1 2-1 12-6 2h-2l-1 5-9 2-1 13-1 6 1 1 1 16h-5l-1-1-1-67 3-3 3-1 3-9z" fill="#FAF6E3"/>
<path transform="translate(969,1197)" d="m0 0h25l13 1v22l-1 4h-37z" fill="#A9D7B6"/>
<path transform="translate(1077,511)" d="m0 0h116v1h-32v5l-3 1-6 1-2 1h-7l-1-7-53-1-1 11 4 1-2 9h-2v-7h-2l1 5v11l-1 2h-2l1 4 2-3h2l-3 9-3-3-1-2-2 5h-6l-2-4 2-2h3l-5-1-2 7-3-1v-7l3-3v-8l1-2h-7l-1-7 2-2h4v-3h3v-6l2-3z" fill="#F4F1DF"/>
<path transform="translate(1194,612)" d="m0 0h2l-1 4-5 2-2 5v11h-59l-1-1v-10l2-1v-3l3 1v2l1-1 1-3 11 1 1 2 4-3 2 3 1-3 3 1v5l2-1v-4h17l10-2z" fill="#ABD7B7"/>
<path transform="translate(1141,523)" d="m0 0 4 1-1 3v10l9 13 2 4h4l2-5 7-10 1-4v-11h6l2 1 2 9 5 12 3 5 1 10-11-2-44-1v-2l7-2v-10l-6-2 1-7h6z" fill="#A9D7B6"/>
<path transform="translate(978,1058)" d="m0 0 2 1 2 3 5-1 1-2 4 1 2 4 5 4 6 10 1 2-2 8h-34l-1-1v-28h8z" fill="#FAF6E3"/>
<path transform="translate(1209,926)" d="m0 0h11l1 3v272h-1v-245h-2v6l-3 2-4-1-2-7-3-4v-2l-3-1-1-6-2 5-2-1v-7l2-1 2-7 5-5z" fill="#E2DFD3"/>
<path transform="translate(809,511)" d="m0 0h101v1h-49l2 7 2 1 1 6v28h-19l-2-4-1-7-3-4 11-3 2-9v-5l-7-2v-7h-11v3 3l-5-1-1-3 2-2-23-1z" fill="#AAD6B6"/>
<path transform="translate(1045,844)" d="m0 0h49v5l5-5h4l1 11-1 3-10 1-5-2 3-6-10 7-8 1h-27l-2-2v-8z" fill="#FAF6E3"/>
<path transform="translate(769,1227)" d="m0 0h2l1 11 1 34 1 147 2 12 8 19 2 4-5-4-8-16-2-9-1-9-1-50z" fill="#9FAFBC"/>
<path transform="translate(1042,1098)" d="m0 0 5 1v10h4v-3h2l1 2h6l2-2 3 3v-7h3v8l4-1h13l1 1-1 7-7 1-2-1v-2l-6 3h-6l-1-3-5 3h-6l-5-4v2l-3 1v-2l-4 1-4-2-1-5-3-2v10h-3v2h6l1 1v5h-2l-1-4-2 5h-2v-3l-2 1 1 2h-5l-1-1v-5-2l-1-2v-6l2-2 1-8 6-1 2 2 1 4 3-2-2-2 3-2z" fill="#FAF7E6"/>
<path transform="translate(1131,1166)" d="m0 0h1l1 14 4 10 4 5-1 11-1 1h-26v-6l1-2 1-15 9-13 4-1v-2z" fill="#AAD5B6"/>
<path transform="translate(1128,838)" d="m0 0 4 1-2 6 4 1 1-7h7v2h11l1 3-1 2h-6v-3h-2l-1 4 1 9-2 2h-9v11l-3 1-1-4h-5v3h-3v-10l-3-1h-12v-14h19z" fill="#FAF6E3"/>
<path transform="translate(1148,881)" d="m0 0h2l1 2v9l5 1v6h-3l2 7v26l-1 2h-5l-1-1v-24l-2 1-1 22-2-1v-9l-10-1-1-5h-11v-6l6-1v-2-6l3-2 5 1 1 9 2-1-1-1v-6l3-2 4 1h2l4-1 2 3-1-3-3-1z" fill="#FAF6E3"/>
<path transform="translate(869,651)" d="m0 0h3v2h9l2 2 1-2h2l1 7h2v-6l5-1h13l1 2 2-2h8l1-2 4 1 2 2 1-1h6l1 9-1 1h-12v-2h-2v2h-3v-7l-2 1-1 6h-12l-1-4v-3l-2 1-1 6h-11-3-12l-2-7-1 2-1 5h-6-3-6l-2-3 1-6 1-1h6 4 7z" fill="#959FA7"/>
<path transform="translate(948,938)" d="m0 0h3l9 16 4 6 1 3 4 4 1 6-5-1-4-3-7-1v2l-7 4-4-1-4-6 1-5 1-2 5-1v-2l-4-1-12-6 4-4z" fill="#FAF6E3"/>
<path transform="translate(1018,1187)" d="m0 0 5 2v6h26l2 2-1 4-7 3-3 3-2 17-1 2-7 3-10-1-2 1v13h-4l-1-15h2l2-4h3 7v-2l4-1v-16l-7 2-3 4 1 8-4 2-2-1 1-5-1-10h5v-3h-4l-1-7z" fill="#FAF6E3"/>
<path transform="translate(816,486)" d="m0 0h35v1l-34 1-1 2-16 4-13 8-8 8-4 8-2 11-1 13v192l-3 3v-199l2-14 4-11 6-9 7-7 12-7z" fill="#AAADAF"/>
<path transform="translate(946,1059)" d="m0 0h8l1 1 7-1 2 2v18l-3-2-2-8h-5l1 23-1 9-2 5h-2l1-6-3-2v10l-2 1v-9l-3-1v-32l2-7z" fill="#FAF6E3"/>
<path transform="translate(1068,691)" d="m0 0h1l1 9v51l-1 1h-9v-58l7-2z" fill="#FAF6E3"/>
<path transform="translate(1193,1194)" d="m0 0 4 5 3 10 2 3v4h2l2 5 1-3h2l1-3 11-1v202h-1l-1-96v-80l-3-3-1-4-4-2-4-6-5-1-4-10-7-13-2-1 2-4z" fill="#BABBBD"/>
<path transform="translate(1157,839)" d="m0 0 8 1 1 2h14l7 2v9l-7 5h-29l-4-2v-7l3-3 4 1 1-2 2 1v-4z" fill="#FAF6E3"/>
<path transform="translate(1199,1180)" d="m0 0h3l6 11 7 12 5-3 1 1v13l-4 1-7 1-1 2h-2l-1 4-2-3v-3h-2l-4-11-4-9-1-3z" fill="#FAF6E3"/>
<path transform="translate(1130,805)" d="m0 0h1v31l-6 3-1 1h-10l-1-1v-32h3l2 1 1 6h1l1-7 8-1z" fill="#A9D8B6"/>
<path transform="translate(940,580)" d="m0 0h6l3 3-3 1h-6l-2 3 1 6 6 1 2-1v-2l-4-1v-2h8l2 1 2-4h7l2 2v3h2l1-4 2-1h6l4 3 3-3h8l1 1v13l-3 3h-6l-2-3 2-1 6 1v-2h-6l-4-3-5 4-6-2-1-4h-2l-1 4-6 2-6-5-4 4-5 1-5-3-3-4 1-6z" fill="#B2B2B3"/>
<path transform="translate(1110,1082)" d="m0 0 7 1 6 5 1 2v9l-6 9-4 8h-3l-7-11-4-7v-7l4-6z" fill="#ADAEAF"/>
<path transform="translate(985,885)" d="m0 0h7l7 4 2 5-1 8-8 13-4 4-6-10-5-7v-10l5-6z" fill="#ABAFB4"/>
<path transform="translate(1063,924)" d="m0 0h8l2 1v2l4 2 1 1v12l-4 6-3 3-3 7-3-1-6-10-4-6v-10h2v-3h2v-2z" fill="#9CC1F2"/>
<path transform="translate(1151,520)" d="m0 0h10l4 3v3h3l1 8-3 6-5 5-3 8h-3l-8-14-3-4v-7l2-4z" fill="#3FA0F2"/>
<path transform="translate(1119,649)" d="m0 0 5 1 1 3h-4l4 3 2-6 3 1v2l5 1h2l1-1h6 3 7 3 7l2 2 2-6h2l1 13-4 1h-2-5l-1 4h-2l-1-5-6 2-1 3-3-1-1-4-1 1h-6-3-2l-1-6-2-1v6h-4l-2 1h-6l-2-4 2-1 4 2-6-6 2-4z" fill="#859EB1"/>
<path transform="translate(1222,1441)" d="m0 0 1 2-7 13-10 7-9 4-11 2h-366l-13-2v-1l18 1h357l13-2 10-4 5-4 10-13z" fill="#ABAFB2"/>
<path transform="translate(825,572)" d="m0 0h7l5 3 3 4v10l-10 15h-3l-3-6-3-1-5-9 3-11 2-3h4z" fill="#F8F4E1"/>
<path transform="translate(806,724)" d="m0 0h10l6 5 1 3v7l-3 6-6 7-1 4-3-1-1-1-6-8-4-7v-7l2-4z" fill="#F2F5FA"/>
<path transform="translate(1080,1331)" d="m0 0h10l6 5 2 5-1 8-5 6-2 1h-9l-6-4-3-6 1-8 4-5z" fill="#FDFDFD"/>
<path transform="translate(864,1301)" d="m0 0 5 1 1 3h-3l-4-1 1 7 6-1-1 4h-7l1 1 8-1 4 2 1 6-1 1h-30l-2-1 1-5h3v-2h3l-3-1v-2h-2v2l-3-1v-6l-2 1-1 6-2-1v-8l5-1 4 3 2-3h6l1-2 6 1z" fill="#A0C2F7"/>
<path transform="translate(1196,513)" d="m0 0 6 1 9 6 4 5-1 5-6 13-12 1-2 5-4-2-2-3 1-10 2-3 4-2 4-11v-3z" fill="#A8D5B6"/>
<path transform="translate(861,512)" d="m0 0h12l2 8 1 3v35l-2 2h-9l-1-5h-5v-1h7l-1-34-3-1z" fill="#FAF6E3"/>
<path transform="translate(1169,573)" d="m0 0h6l4 5-2 2-4-2-1 3 6 2-1 8-2 4 1 4 4-1 5 5-4 4-6 2-8-1-4-2-1-2-5-3v-6l3-2 1 5h4l1-7-2-1-1-9 3-7z" fill="#888B8D"/>
<path transform="translate(1166,1157)" d="m0 0 9 6 4 6 2 1-1 4h-2l-1 4-5 5-3 1-1 2h-3l-1-2-5-3-4-5-3-3v-3l3-3 5-6 5-3z" fill="#DBE0E4"/>
<path transform="translate(1031,801)" d="m0 0 5 2 6-1h13l1 1h37l10 1v-2l6 1 4 2v5l-3-2v-2l-8-1v12h-5l-3-3h-3v2l2 1-6-1-5 1h-3l-5-1-2-1-1 2h-6l-2-2 1-5 4-1 2 1v-4l3 1 1 3 4-1 3 2 2-2 4 1 1 1 2-2 6 1 4-1v-3l-7 1-1-1h-32l-17-1-4 2-7-2z" fill="#BEBEBF"/>
<path transform="translate(1098,694)" d="m0 0h5v56l-2 2-3-1 1-4-2-5-4-4-1-3 1-30 4-3z" fill="#FAF6E3"/>
<path transform="translate(851,486)" d="m0 0h213v1l-45 1-160 1-43 1 1-3z" fill="#86A6C0"/>
<path transform="translate(987,876)" d="m0 0h5l5 6-3 3h-12l-2 4-2 3h-2l-1 5-9 6-4-2-5-8 1-4 15-9 5-1h5z" fill="#FAF6E3"/>
<path transform="translate(903,824)" d="m0 0 7 1 1 4-3 7 5-1v-2h2v-3l4-2 6 1 2 7 2 10v8l-2 1-9-6-6-7-6-4-6-5 1-7z" fill="#FAF6E3"/>
<path transform="translate(1105,1288)" d="m0 0h2v2h9l2 6 1 22-1 6h-10l-1-2-2-20z" fill="#F9F5E2"/>
<path transform="translate(1e3 649)" d="m0 0 7 1 1 3h7l3 2v-2h6l1-3h3l1 4 5-1h6l2 8-2 2h-10l-1-2-4 2-2-7h-2v6l-4 1h-8l-1-5 1-2-6 3-1 4h-3v-13z" fill="#99A2AA"/>
<path transform="translate(994,1332)" d="m0 0h14l2 1v21l-2 1-4-2h-6l-6 1v-20z" fill="#B0B1B2"/>
<path transform="translate(1234,838)" d="m0 0h2v122h-2l-1-2v-119z" fill="#D2D2D3"/>
<path transform="translate(1165,1249)" d="m0 0 4 1 10 10-1 4-10 10-4-1-10-10 1-4z" fill="#E4ECFA"/>
<path transform="translate(1135,618)" d="m0 0 11 1 1 2 4-3 2 3 1-3 3 1v6l-1 2h-2l-2 4-2 2-7 1h-14l-1-1v-10l2-1v-3l3 1v2l1-1z" fill="#A9D2B5"/>
<path transform="translate(1094,831)" d="m0 0 4 1 1 7-1 2h-53l1-4 10-2 10 2 1-4 9 1 1-1 13-1z" fill="#FAF6E3"/>
<path transform="translate(1033,617)" d="m0 0h18l1 4-2 4h-2l-1 5-2 1-1 3-20 1 1-5z" fill="#FAF6E3"/>
<path transform="translate(832,1331)" d="m0 0h8v2l4 2 1 2v8l-6 8-2 2-5-1-3-3-3-8 1-7 3-3h2z" fill="#2998F1"/>
<path transform="translate(1130,899)" d="m0 0 5 1 1 9h8v-2h-4v-2l6-1-1 28-2-1v-9l-10-1-1-5h-11v-6l6-1v-2-6z" fill="#FAF6E6"/>
<path transform="translate(965,937)" d="m0 0 4 5 9 15 4 6-2 4-6 3-5-6-7-11-3-4 2-10z" fill="#FAF6E3"/>
<path transform="translate(783,687)" d="m0 0h30l2 1v8l-7 2-19-1h-3l-4-1v-8z" fill="#FAF6E3"/>
<path transform="translate(1092,646)" d="m0 0h6l2 4 3 1v15l-1 1h-14l-2-2v-14l4-1z" fill="#90A9BD"/>
<path transform="translate(970,924)" d="m0 0 5 1 7 12-2 3 1 4 6 9-1 5-4 1-9-14v-3h-2l-7-12 1-3z" fill="#FAF6E3"/>
<path transform="translate(1092,1408)" d="m0 0h16l1 1v17h-17z" fill="#1D1C1C"/>
<path transform="translate(919,893)" d="m0 0h4l5 9v4l-10 6-3 2h-8l-3-4 1-4 10-10z" fill="#FAF6E3"/>
<path transform="translate(836,1363)" d="m0 0h2l1 3 6-1h4 10l2 2-1 6-5 1-2-2v-4l-2 1-1 4-9 1-5-1-7 1v2h-2l-1-2-7-1v-7l14-1 2 1z" fill="#83B5F0"/>
<path transform="translate(1028,1099)" d="m0 0 4 2 1 4 3-2-2-2 5-2 2 1v9h-6l-3-2v10h-3v2h6l1 1v5h-2l-1-4-2 5h-2v-3l-2 1 1 2h-5l-1-1v-5-2l-1-2v-6l2-2 1-8z" fill="#FAF7E8"/>
<path transform="translate(938,923)" d="m0 0 4 1 5 7v5l-13 8h-3l-5-8-5-1 3-4 11-6z" fill="#FAF6E3"/>
<path transform="translate(950,870)" d="m0 0 3 1 1 2 5-1 5 5h4l5-3 1 3-10 6-7 4-4-1-4-6-1-4v2h-2l-3 3h-3v3l-4 1-3-4 2-4h3v-2l6-1z" fill="#FAF6E3"/>
<path transform="translate(913,1336)" d="m0 0 5 1 5 3 1 2v12l-1 1h-16l-1-1v-13z" fill="#B1B2B3"/>
<path transform="translate(1166,1331)" d="m0 0 7 6 1 2 1 9 1 4-6 1-2 3-4-1-1-2-7-1 2-4 1-10z" fill="#AAAEB1"/>
<path transform="translate(824,765)" d="m0 0 3 1 1 14-2 9h-20l-1-2 5-6 8-6 3-7z" fill="#FAF6E3"/>
<path transform="translate(1107,693)" d="m0 0 3 1 1 10v48h-6v-54z" fill="#FAF6E3"/>
<path transform="translate(840,1281)" d="m0 0 7 1 3 3v7l-3 3-7 1-4-3-9 1-3-2-1-4 3-5 5-1 5 2z" fill="#FAF6E3"/>
<path transform="translate(961,1308)" d="m0 0 8 1 5 4 2 5-1 5h-23l-1-4 3-6 4-4z" fill="#AFB0B1"/>
<path transform="translate(1105,1271)" d="m0 0 1 2 14-2 1 11-3 6-3 3-8-1-4-8 1-10z" fill="#A8B4C7"/>
<path transform="translate(975,1033)" d="m0 0h2l5 8v2l-5 3v3l-1 3h-2l5 3v-5l5-2 4 3-1 9-6-1-3-2-2 2h-5l-1-3 5 1v-2l-5-2 1-4-2-1-1-9 4-4z" fill="#FAF6E3"/>
<path transform="translate(833,754)" d="m0 0 4 1 1 2-2 12 4 5v12l-4 1-1 2h-5l-1-1v-14l1-15 1-4z" fill="#FAF6E3"/>
<path transform="translate(982,1362)" d="m0 0 5 1v2l-2 1 4 3 2-4 8 1 2 2 1-2 8-1 3 2 3-2h3v-2l3 1v8l-3 2-5-1-1-2-3 3-4-1-2-3-2 3h-3l-2-4-1 4-5 1-4-1-4 1-2-1v-3l4 1v-2l-4-2z" fill="#B4B4B5"/>
<path transform="translate(1038,1016)" d="m0 0h12l1 4v7l-4 7-2 1h-6l-5-6v-9l1-3z" fill="#AAB2BF"/>
<path transform="translate(888,920)" d="m0 0h2l1 5 9-1 3-1 1 3h6l3 2v3l-12 1-2 1-2 8-3-2 1-4 1-2-5 2-1-3-4-3-4 1-4 2-7-3-2-2 8-1 4 1h2v-5z" fill="#FAF6E5"/>
<path transform="translate(919,767)" d="m0 0 2 2 1 5-1 2v10l-2 3-5-1 1 2 9 2-2 6h-2l-1-2h-12l-1-6 5-1 2 1-2-4v-11l3-5z" fill="#FAF6E3"/>
<path transform="translate(888,775)" d="m0 0h18v12l-1 1h-20v-7l2-2z" fill="#A9D8B6"/>
<path transform="translate(940,580)" d="m0 0h6l3 3-3 1h-6l-2 3 1 6 6 1 2-1v-2l-4-1v-2h8l2 1 2-4h7l2 2v3h2v2h-2l-1 4-6 2-6-5-4 4-5 1-5-3-3-4 1-6z" fill="#B2B2B3"/>
<path transform="translate(1138,1363)" d="m0 0h3v8l3-1 1-7h2v3l7-1 3 2 3-2h3v-2h2v7h2l1-5 5 1v7l-5 1-2-2-6 2-4-2-6 4h-2l-1-4-3 2-4-1-2-3z" fill="#B1B1B2"/>
<path transform="translate(866,617)" d="m0 0h8l2 2v6l3 4v5l-5-1-4 2-8-1-1-1v-9l3-1 1-5z" fill="#FAF6E3"/>
<path transform="translate(915,719)" d="m0 0 6 1v18l1 20-2 9h-1l-2-9-2-1z" fill="#FAF6E3"/>
<path transform="translate(1215,526)" d="m0 0 3 3 3 10v125h-1v-42l-5-2-2 2-1-1v-7l-2 1-2 7-2-1v-8l5-2 1-3 3 1 1 4 3-1-1 5 1 2v-78l-4-13z" fill="#AAAEB2"/>
<path transform="translate(1145,770)" d="m0 0h6l5 4 1 4v7l-1 2h-11l-5-5v-7z" fill="#D6E4FA"/>
<path transform="translate(1162,956)" d="m0 0h10v24h-10z" fill="#A9D8B6"/>
<path transform="translate(1080,1331)" d="m0 0h10l6 5 2 5-1 8-5 6-2 1h-9l-6-4-3-6 1-8 4-5zm2 3-5 4-1 2v7l4 5 2 1h6l6-5v-9l-6-5z" fill="#B0B1B2"/>
<path transform="translate(1134,956)" d="m0 0h10v23l-1 1h-9z" fill="#A9D7B6"/>
<path transform="translate(999,809)" d="m0 0 4 2 4-2h6 4l6 2 4-2 3 2 2-2h8l2 3-1 5h-5l-1-3 1-3-2 1-1 5h-4l-5-1-4-2v-2h-2v6l-2 1-2-2h-1l-1-5-2 4-2 1-1-5-2 5-1-4-5 1v2l2 1-4-1-1-4z" fill="#B7B8B9"/>
<path transform="translate(1077,511)" d="m0 0h116v1h-32v5l-3 1-6 1-2 1h-7l-1-7-65-1z" fill="#A9C2B2"/>
<path transform="translate(781,543)" d="m0 0h1l1 175 6 1v9l-7-2-1-7z" fill="#ABACAE"/>
<path transform="translate(899,1365)" d="m0 0 6 1 8-1 6 1 5-1h5l5 1v5h3v-5h2v7l-5 1-2-2h-4v-4h-2v5l-3-1v-4h-2v5h-6v-5h-2v5l-3-1v-4h-2v5l-9 1-2-3h5v-3h-5v-2z" fill="#B4B4B5"/>
<path transform="translate(781,726)" d="m0 0h1v9h3v13h-3v104l5 1 1 1v8l-6 1-1-10z" fill="#A6ACB1"/>
<path transform="translate(1091,1363)" d="m0 0h3v2l9 1v5h2v-5l4-1 1-2h2l3 3 5-1 2 2v5l-2 2-6-1-2 1-2-1-1-5-1 5-6 1-3-2-2 2-6-1z" fill="#B4B4B5"/>
<path transform="translate(896,834)" d="m0 0 4 2 9 7v2l4 2 8 7 9 8 1 4-6-3-2-2-6-2-4-3v-2l-3-1v-2l-5-2-3-5-1-3-6-2v-4z" fill="#FAF6E3"/>
<path transform="translate(820,792)" d="m0 0 9 1 8 5-2 4-2 2 7 3 6 7-4 3-8-7-9-8v-2l-4-2v-2l-3-1v-2z" fill="#FAF6E3"/>
<path transform="translate(1070,806)" d="m0 0 3 1 1 3 4-1 3 2 2-2 4 1 1 1 2-2 4 1 2 1-1 4-4-1v2l2 1-6-1-5 1h-3l-5-1-2-1-1 2h-6l-2-2 1-5 4-1 2 1z" fill="#BFC0C0"/>
<path transform="translate(1119,649)" d="m0 0 5 1 1 3h-4l4 3 2-6 3 1v2l5 1v2l4-2 4 1-3 2v3l3 1v2h-5-3-2l-1-6-2-1v6h-4l-2 1h-6l-2-4 2-1 4 2-6-6 2-4z" fill="#A2AFBA"/>
<path transform="translate(816,486)" d="m0 0h35v1l-34 1-1 2-16 4-13 8-8 8-4 8-2 11-1 13-2 2v-15l3-12 5-9 9-10 11-7 13-4z" fill="#AAB4BC"/>
<path transform="translate(1175,765)" d="m0 0 3 1v5h3v3h-3v9l4 1-1 3-5-1-2-2v-10l-10 1-1 1-1 10h-4v-15l5-1h6l5 1v-5z" fill="#D1E1FA"/>
<path transform="translate(825,572)" d="m0 0h7l5 3 2 6v7l-9 11-2 2-2-4 1-4 6-7-1-6-9-1-1-4 3-1z" fill="#2E99F0"/>
<path transform="translate(1030,1203)" d="m0 0 2 1v16l-5 1v2l-7 1-2 1-1-5 4-2-1-9 5-5z" fill="#FDFDFD"/>
<path transform="translate(1065,770)" d="m0 0h6l5 5v5l-1 1-9 1 7 1v3l-2 1h-6l-5-5v-7z" fill="#C7DEF9"/>
<path transform="translate(862,580)" d="m0 0 7 1v3h-6l1 2 5 3 2 1 3-5h7l2 3-1 4h-7l1 2h6l-1 3-4 1-5-3v-2h-2l-2 4-4 1-4-2-1-3h3l4 1v-3l-6-4-1-3z" fill="#B2B3B4"/>
<path transform="translate(1193,1194)" d="m0 0 4 5 3 10 2 3v4h2l2 5 1-3h2l1-3 11-1v8l-1-2h-8l-3-1 1 8-3-2-5-1-4-10-7-13-2-1 2-4z" fill="#AFD0B8"/>
<path transform="translate(1081,1095)" d="m0 0 4 1 1 7 3 1v2h5l-1 3h2v7l-5 4-2 2-1-2-4-2 2-3v-5h-17l2-2v-8l3 1v7h6v-8l2-2 1 10h1v-11z" fill="#FBFBFA"/>
<path transform="translate(1107,683)" d="m0 0h1v10l-2 5-1 54h5v1h-11l3-3v-47l1-9h-5v-1h5v-2h-4v-7l4 4h4z" fill="#FDFDFD"/>
<path transform="translate(854,1282)" d="m0 0h8l1 1v13l-3 4h-7l-2-4v-4-7z" fill="#AABFDF"/>
<path transform="translate(919,651)" d="m0 0 4 1 2 2 1-1h6l1 9-1 1h-12v-2h-2v2h-3v-7l-6 2 1-5h8z" fill="#99A7B3"/>
<path transform="translate(995,974)" d="m0 0 3 1 1 2h2l2-3h3l2 3v12 3l-2 1-3-1-1-2-1-9h-2v7l1 4-3 1-3-2-1-10v-4z" fill="#717D88"/>
<path transform="translate(1147,826)" d="m0 0 4 1 2 7 8 2h11l1-1h12l2 1-1 4h-13l-7 1-1-2h-8l-3 2-7-1z" fill="#FAF6E3"/>
<path transform="translate(1172,653)" d="m0 0h7 4 7l1 1v11l-2 2h-6l-1-5-4 1-1-6-2-1v6l-3 1z" fill="#9DABB7"/>
<path transform="translate(1012,1165)" d="m0 0h7l-1 7v17l-1 3-4-2-4-10v-7z" fill="#FAF6E3"/>
<path transform="translate(991,1023)" d="m0 0 4 1 3 5-1 4-10 7-4-1-3-5 1-5z" fill="#FAF6E3"/>
<path transform="translate(955,972)" d="m0 0 7 2 1 5-5-1-3-1v2l8 5v6l-5 3-6-1-3-2v-4l4 1 6 1-3-3-6-3-1-1 1-7z" fill="#85A8C4"/>
<path transform="translate(1206,791)" d="m0 0h1v8l-3 4-4 2h-55l-12 1-1 5h-1v-6l1-2h11l4-1h40 3 9l3-4h4z" fill="#BEBEBF"/>
<path transform="translate(1150,618)" d="m0 0 2 1 1 2 1-3 3 1v6l-1 2h-2l-2 4-2 2h-6l-6-9v-2h4l1-3h3l1 2z" fill="#A3C0EB"/>
<path transform="translate(1027,1288)" d="m0 0 3 2h13l5 1-1 5h-8l-9 2v-2l-4-1-4 1-4-1v-2h-2v3h-2v-7h2v2h2v-2l8 2z" fill="#B6B6B7"/>
<path transform="translate(999,1409)" d="m0 0h7l4 4v6l-4 4h-7l-4-4 1-7z" fill="#1D1C1C"/>
<path transform="translate(1182,720)" d="m0 0 4 2 2 3-3 4 3 2-5 6-6 1-4-3-5-2-1-4 3-1-2-4 3-3 2 1v4l4 3 5-2 2-4z" fill="#BDC2C5"/>
<path transform="translate(1017,580)" d="m0 0 4 2 3 8 2-2 3-7h4v15h-3l-1-6-3 7h-3l-3-7-2 7-2-1v-15z" fill="#B3B3B4"/>
<path transform="translate(1009,1012)" d="m0 0 4 1 3 7-5 4-4-1-2 3 5 5 1 4-5 1-1-5h-2l-1-6-3-1 1-2 4-1-1-5z" fill="#FAF6E3"/>
<path transform="translate(819,733)" d="m0 0h1l1 11-7 8-1 4-3-1-1-1-6-8-3-6 1-3 2-1 1 5 15 1z" fill="#3B9EF3"/>
<path transform="translate(809,1276)" d="m0 0h8l2 1v3h-8l-3 3 1 6 1 1h8v-3h-5l1-3h8v6l-5 5h-7l-5-4-1-2v-8z" fill="#8AB7EF"/>
<path transform="translate(899,932)" d="m0 0h12l3 2-2 1-1 8h-3l-1-8-3 1v3h-3v2l4 1-4 2-7-1-1-3h-2v3h-3v-10l4 1 4-1-1 6 1 1z" fill="#B5B5B6"/>
<path transform="translate(1073,899)" d="m0 0 4 1 2 3 3-4 5 1 1 2 3-3 3 1-2 3-1 6h-2l-1-4h-5v2l4 1-1 1h-5l-2-3-2 3-4 1-1 2h-2v-12z" fill="#B3B4B5"/>
<path transform="translate(1017,754)" d="m0 0h1v44l-4 2v-11l-2 4-1 7h-2l-1-10 3-4 5 1 1-7-4-1-1-7 2-2h3z" fill="#AEB6C2"/>
<path transform="translate(996,1335)" d="m0 0h10l1 1v13l-2 1-5-1-4 1-1-1v-13z" fill="#FDFDFD"/>
<path transform="translate(982,977)" d="m0 0 7 1 2 3v10l-7 2-5-2-1-4 2-4-1-4z" fill="#86A9C6"/>
<path transform="translate(1172,586)" d="m0 0h4l1 5-2 4 1 4 4-1 5 5-4 4-6 2-8-1-4-2-1-2-5-3v-6l3-2 2 6 2 2 1 5 7 1 4-1v-3l-4-2 1-11z" fill="#6AA5D4"/>
<path transform="translate(1077,933)" d="m0 0h1v9l-4 6-3 3-3 7-3-1-5-8 1-4-1-2h13l2-9z" fill="#2698F3"/>
<path transform="translate(1119,770)" d="m0 0 7 1 2 2v3l-9-2v2l7 1 2 2v5l-4 3h-6l-4-4 1-2 8 2v-2l-7-1-2-5z" fill="#D3E2FA"/>
<path transform="translate(1054,1119)" d="m0 0h2v2h2v-2h5 2 8 4l5 1 5-1 1 4-2 1 1 2-5-1-2-1-1 2h-2v-2h-2v2l-3-1v-3l-3 2v2l-5-1-3 1-1-4-2 4h-2z" fill="#B6B6B7"/>
<path transform="translate(1e3 1e3)" d="m0 0 4 2 1 7-6 3h-1v6l-4 1 1-3-4-1-2-4 1-5 4-2 3-3z" fill="#FAF6E4"/>
<path transform="translate(928,908)" d="m0 0 4 1 6 9-2 4-5 3-4-1-2-2v-8h-2l2-4z" fill="#FAF6E3"/>
<path transform="translate(1050,1096)" d="m0 0h1l1 7 3-4 5 1h3l5-1 3 3v6l-3 1v-7h-3v7l-4-1-1 1h-6l-1-3h-2v3h-2v-12z" fill="#C1C2C2"/>
<path transform="translate(960,909)" d="m0 0 5 1 6 9-1 3-6 3-4-1-5-9 2-4z" fill="#FAF6E3"/>
<path transform="translate(1097,770)" d="m0 0 7 1 2 2v3l-8-1 7 3 1 1v5l-4 3-7-1-2-2v-3l8 1-8-3-1-4z" fill="#D7E5FA"/>
<path transform="translate(931,885)" d="m0 0h3l6 10-2 4-5 3-4-2-4-8 1-4z" fill="#FAF6E3"/>
<path transform="translate(851,653)" d="m0 0h6 4l7 1-1 4-1 5h-6-3-6l-2-3 1-6z" fill="#B1B6BB"/>
<path transform="translate(1086,651)" d="m0 0 2 1v2h2l1 3 6 1h2l2-4v11l2 1-1 1h-14l-2-2z" fill="#A5B1BB"/>
<path transform="translate(924,1048)" d="m0 0 4 1 2 2 1-2 4 2v2h2v-4h2v10h-3l-3-3v3l-4-2-3 3-4-1-2-2v-6z" fill="#B8C0CD"/>
<path transform="translate(1063,924)" d="m0 0h8l2 1v2l4 2-1 2-6 1-4-2-4 3-1 3h-2v6l-1-3-1 2h-2v-10h2v-3h2v-2z" fill="#6FB0F4"/>
<path transform="translate(952,893)" d="m0 0 4 2 5 8-1 4-6 3-3-1-5-8 1-5z" fill="#FAF6E3"/>
<path transform="translate(984,890)" d="m0 0h7l1 1v7l1-1v-5h3v7l-3 5h-11l1-13z" fill="#EDEFF1"/>
<path transform="translate(949,916)" d="m0 0 5 1 5 9-2 4-4 2-4-1-5-8v-4z" fill="#FAF6E3"/>
<path transform="translate(969,977)" d="m0 0 6 1 2 2v6l-3 1-4 1h6v3l-3 2-5-1-3-2-1-6 2-5z" fill="#ADB0B3"/>
<path transform="translate(941,900)" d="m0 0 3 1 5 8-1 5-4 3-5-1-4-9 1-3z" fill="#F3F3DF"/>
<path transform="translate(1154,524)" d="m0 0 7 1v4h2v9h-14v-7l4-2z" fill="#EFF4FC"/>
<path transform="translate(1021,977)" d="m0 0 6 1 2 3v5l-7 2h6l-1 4h-8l-3-4 1-8z" fill="#8DA7BB"/>
<path transform="translate(841,1304)" d="m0 0 5 3 2-3h6v12l-2 2-5-1v-2h3l-3-1v-2h-2v2l-3-1v-6l-2 1-1 6-2-1v-8z" fill="#B9BCC1"/>
<path transform="translate(1177,715)" d="m0 0 5 2 2 3v2 4l-5 4-5-2-3-3v-3l-2 4h-2l1-4z" fill="#A8B0B7"/>
<path transform="translate(851,486)" d="m0 0h16l36 1v1l-87 2 1-3z" fill="#82A6C2"/>
<path transform="translate(1062,1175)" d="m0 0h6l-1 4-1 2h3l3 6v5h2l2 5 2 4-6 2 1-3-4-4-1-4-4-4v-3l-3-9z" fill="#B5B6B7"/>
<path transform="translate(869,1296)" d="m0 0 10 1v3l-4 1 1 3 4 4-1 5-1 1h-6l-1-1v-7l1-2-4-3-4-1v-3z" fill="#C1C3C5"/>
<path transform="translate(838,875)" d="m0 0 5 1 7 7 1 2 4 1 3 3v2l4 2-1 5h-3l-8-7v-2h-3v-2l-4-2-2-6z" fill="#FAF6E3"/>
<path transform="translate(1e3 649)" d="m0 0 7 1 1 3h7l2 5-1 4h-2l-3-3-1 3-1-4 1-1-4 1-3 1-1 4h-3v-13z" fill="#86A1B7"/>
<path transform="translate(942,1048)" d="m0 0h13l1 2-2 2 1 3h-3v2h4v2l-11 1-4-1v-10z" fill="#C7C7C6"/>
<path transform="translate(1047,585)" d="m0 0h9l3 4-1 6-5 3-4-1v5h-2z" fill="#B2B3B4"/>
<path transform="translate(1191,1065)" d="m0 0h6l2 1v9h-15v-9z" fill="#A9D7B6"/>
<path transform="translate(1180,860)" d="m0 0 5 1-4 5-4 2h-3v6l-2 2h-10l1-5z" fill="#FAF6E3"/>
<path transform="translate(918,1332)" d="m0 0h14l2 1v21l-1 1h-7v-3h4v-17h-13z" fill="#B3B4B5"/>
<path transform="translate(972,1048)" d="m0 0 5 1-1 3h-2l5 3v-5l5-2 4 3-1 9-6-1-3-2-2 2h-5l-1-3 5 1v-2l-5-2 1-4z" fill="#B3B4B5"/>
<path transform="translate(1093,868)" d="m0 0 9 2 1 1v12l-8-1-1 2-2-5-1-9z" fill="#FAF6E3"/>
<path transform="translate(1099,859)" d="m0 0h3v2l5-2-1 6 3 3v-9h6v2h-3v2h3v2h-3v2h4l4-8 1 3-3 8h-8l-6-2-1-1-1 2h-3z" fill="#B1B2B3"/>
<path transform="translate(1184,1108)" d="m0 0h4v5l-2 1 3 1 2 5 3 5 4 7v3l-5 1-4-8 1-4-4-2-3-6v-4h-2l1-3z" fill="#B6B7B8"/>
<path transform="translate(801,768)" d="m0 0h6l4 4-2 4-8 10h-2v-17z" fill="#A9D8B6"/>
<path transform="translate(878,723)" d="m0 0h3v3l2-1v-2h3l-2 10 1 8-1 2v8l-5-2-1-5v-13l1-4z" fill="#B3B4B5"/>
<path transform="translate(869,651)" d="m0 0h3v2h9l1 1v9h-12l-2-7z" fill="#A2AEB8"/>
<path transform="translate(1077,1363)" d="m0 0 3 2v9l-3-1v-5h-2v5h-2v-5h-3v5l-9 1-3-3 1-4 2-2 6 1 9-1z" fill="#AFB0B1"/>
<path transform="translate(1209,1219)" d="m0 0h9l3 3v9l-9 1-3-3z" fill="#89B3E0"/>
<path transform="translate(1220,664)" d="m0 0h1v101h-2l-1-2-2 2-1-5h-1l-1 5-2-4-1-3h7l3 2z" fill="#ACADAE"/>
<path transform="translate(1123,936)" d="m0 0h3l4 8 1-5h6v-2h3l1 4v7l-4-1-1-6-2 1-1 6h-5l-2-2-4 1-3 1 3-10z" fill="#A7B2C0"/>
<path transform="translate(809,647)" d="m0 0h10v9l-4 2v8h-3v-8l-3-1-1-2v-7z" fill="#7E8388"/>
<path transform="translate(1091,1407)" d="m0 0h20v20l-1 1h-19l-1-1v-19zm1 1v18h17v-17l-1-1z" fill="#99AAB7"/>
<path transform="translate(1045,1076)" d="m0 0h6l2 4-6-2v3l5 1 2 1 2-4 5 1 1 4-3 2h2l-1 3-5-1h-3l-1 1h-5l-2-4 5 1v-2l-5-3z" fill="#B1B2B3"/>
<path transform="translate(1166,1157)" d="m0 0 9 6 3 7 2 2-3 1-1 2-2-8-3-3h-9l-4 5 1 8 4 4-5-1-4-6-2-1v-3l3-3 5-6 5-3z" fill="#5D6973"/>
<path transform="translate(809,511)" d="m0 0h101v1h-49l-1 2v-2l-24 1v3 3l-5-1-1-3 2-2-23-1z" fill="#ACADAE"/>
<path transform="translate(1010,1048)" d="m0 0 5 1 1 5v5l-3-1v-2h-2v3h-6l-4-1-3 1 3-9h4l2 5 2-6z" fill="#B9B9BA"/>
<path transform="translate(830,857)" d="m0 0h13v2h2l-1 6-5 4-10-8-1-3z" fill="#FAF6E3"/>
<path transform="translate(877,788)" d="m0 0 4 1v2h-3v3l8-4h11l6 1-1 5-1 2h-2l-3-3-4 1h-3-5-3l-5-1v-6z" fill="#B8B8B9"/>
<path transform="translate(1076,983)" d="m0 0 4 4-2 2h-3v2l-6 1-1 2h-2l-2 4-5 1-1 3h-3v-2h2l-2-6 6-1 6-5 4-2z" fill="#B4B4B5"/>
<path transform="translate(1019,1363)" d="m0 0 3 1v8l-3 2-5-1-1-2-3 3-4-1-1-5 2-3 5 1h2l5-1z" fill="#BEBEBF"/>
<path transform="translate(1046,764)" d="m0 0 3 1v18h9v4h-12l-1-1v-21z" fill="#CDDEF9"/>
<path transform="translate(890,991)" d="m0 0h14l8 12v2h-8l-1-1-1-8-12-1-1-3z" fill="#FAF6E3"/>
<path transform="translate(969,585)" d="m0 0h6l3 3v6l-5 4-6-2-1-1v-7z" fill="#AFB0B1"/>
<path transform="translate(1109,1009)" d="m0 0h3l1 4v2l4 5v3h2l3 5-1 4-3-1-4-4v-4h-2l-3-3v-4l-4-2 2-4z" fill="#BCBCBD"/>
<path transform="translate(889,888)" d="m0 0 6 3v2l3 1v2l4 2 3 4-2 3-5-1-7-6-4-5z" fill="#FAF6E3"/>
<path transform="translate(944,881)" d="m0 0h4l3 6-1 5-5 3-4-2-3-5v-4h3v-2z" fill="#FAF6E3"/>
<path transform="translate(940,580)" d="m0 0h6l3 3-3 1h-6l-2 3 1 6 6 1 2-1v-2l-4-1v-2h8l-1 7-6 3-6-2-4-5 1-6z" fill="#B0B1B2"/>
<path transform="translate(1118,521)" d="m0 0h2v12h-7-3-2v-7h-3v6l-2 1v-9h6l1 3h2l1-3h5z" fill="#BEC1C5"/>
<path transform="translate(996,767)" d="m0 0 3 1 3 8 2-6h6l1 1v8h-2l-1-6-2-1v6l-1 1h-5l-5-1-3 1 1-6z" fill="#B6B7B8"/>
<path transform="translate(896,1305)" d="m0 0h7l2 2 1-2h2v7l3-1 1-6h1v9h-6l-1-3h-2l-1 3-4 1-2 3-1-1z" fill="#CCCCCD"/>
<path transform="translate(1210,862)" d="m0 0h10v7l-2 1-1 6h-7z" fill="#A9D8B6"/>
<path transform="translate(1162,1163)" d="m0 0h9l4 4 2 6 2-1-4-6 1-2 3 5 2 1-1 4h-2l-1 4-5 5-3 1-1 2h-3l-1-2-4-2 2-3h7l5-5-1-6-3-3h-9z" fill="#89949E"/>
<path transform="translate(1070,805)" d="m0 0h22l1 1h7v3l-6 2-4-1-2 3-2-1v-2l-4 1-2 1v-2h-5l-2 1-1-4z" fill="#FDFDFD"/>
<path transform="translate(1078,520)" d="m0 0 7 1 2 7-1 5-8 1-1-1v-11z" fill="#BEC0BF"/>
<path transform="translate(841,1365)" d="m0 0 7 1 4-1h7l2 2-1 6-5 1-2-2v-4l-2 1-1 4-7 1v-3l2-4h-4z" fill="#9EBBE5"/>
<path transform="translate(1036,1067)" d="m0 0 5 1 1 3h7l3 2v2l-6 1-1 2h-2v2l-7-1z" fill="#FAF6E3"/>
<path transform="translate(1012,1205)" d="m0 0 5 1 1 9-2 4 2 1-2 5-4 1-1-2v-18z" fill="#FAF6E3"/>
<path transform="translate(1e3 1116)" d="m0 0 2 2-1 2h3l-1-3h3v3l6-1h3 5v2h-3l-1 3h4v2h-5l-1-2h-2v2h-8l-3-3v3h-2v-9z" fill="#B4B5B6"/>
<path transform="translate(1145,843)" d="m0 0h2v3l3 1h-2v9l5 2v1h-7v9h-1l-1-8-3 3-2-3-3-1v10l3-1v2h-6l1-12 9-1 1-1v-9l-3-1h4z" fill="#FDFDFD"/>
<path transform="translate(950,870)" d="m0 0 3 1-1 5h-4v2h-2l-3 3h-3v3l-4 1-3-4 2-4h3v-2l6-1z" fill="#B9B9BA"/>
<path transform="translate(1026,809)" d="m0 0 4 2 2-2h8l2 3-1 5h-5l-1-3 1-3-2 1-1 5h-4l-5-1-2-1 1-4z" fill="#B5B6B7"/>
<path transform="translate(841,649)" d="m0 0 6 1 2 2-1 7 1 4-4-1-1-2-2 3-3-1v-12z" fill="#B2B9BE"/>
<path transform="translate(806,724)" d="m0 0h10l6 5-1 4-2-2-4 1-3-3-4 2h-4l-1 2h-3l1-5z" fill="#68ADF3"/>
<path transform="translate(1028,1099)" d="m0 0 4 2 1 4 3-2-2-2 5-2 2 1v9h-6l-3-2v2h-2l-1-6-2-1v6l-3 1v-9z" fill="#B6B7B7"/>
<path transform="translate(1037,544)" d="m0 0h3l1 2 4-2 4 1 1 5h-5v2h5l-1 2h-5l-3-4h-4v2l4 1-5 1-3-4 2-5z" fill="#B0B5BC"/>
<path transform="translate(1024,524)" d="m0 0h5l1 3h2l1-3h5l1 5-4 2h3v2h-5l-2-3-1 1-1 3h-5l-1-1v-7z" fill="#ADB6C2"/>
<path transform="translate(828,1282)" d="m0 0 5 1 1 4h2l-2 6-3 1h-5l-3-5 2-5z" fill="#B4B4B5"/>
<path transform="translate(907,1409)" d="m0 0h1v15l-6-2-7-5 5-4z" fill="#1D1C1C"/>
<path transform="translate(932,623)" d="m0 0h8l5 5 1 2v7l-4-2-2-6-2-1v-2l-3 1-1 3-4 2h-3l1-4 1-2h2z" fill="#2592EA"/>
<path transform="translate(920,1365)" d="m0 0h9l5 1v5h3v-5h2v7l-5 1-2-2h-4v-4h-2v5l-3-1v-4h-2v5h-2v-7z" fill="#B4B4B5"/>
<path transform="translate(930,833)" d="m0 0h3v2h2l3 3 1 7-2 5h-2l-3 4v-9l-2-4z" fill="#FAF6E3"/>
<path transform="translate(981,649)" d="m0 0 3 3-3 3-2 5 5-1 1-5 2 1 1 7-4 1-2 3-3-1v-2h-5l2-9z" fill="#8D9AA5"/>
<path transform="translate(1072,546)" d="m0 0h5v2l-4 2 1 3h7v6l-1 1h-11l-2-1 1-5h2v-6z" fill="#FAF6E4"/>
<path transform="translate(1148,935)" d="m0 0 3 3 1 5 2-1 2-6 4 1v10l-3 1-1-3-2 3h-2l-2-4-1 4h-2v-12z" fill="#A5B0BD"/>
<path transform="translate(981,740)" d="m0 0h9l1 1v8l-1 1h-9l-1-1v-8z" fill="#A9D8B6"/>
<path transform="translate(1132,765)" d="m0 0h3l1 5 3 1v3l-3 1v7l3 1v4h-5l-2-2-1-10-2-1v-3l2-1z" fill="#E0EAFB"/>
<path transform="translate(886,585)" d="m0 0h7l2 3v8l-7 2-4-3 1-5 6-2h-6z" fill="#BABBBB"/>
<path transform="translate(1068,544)" d="m0 0h11l2 2v7l-1 1h-6l-2-4 2-2h3l-5-1-2 7-3-1v-7z" fill="#B3BBB7"/>
<path transform="translate(908,1406)" d="m0 0 2 1v20l-4-1-13-8v-3zm-1 3-12 7 4 4 7 4h2v-15z" fill="#89A9C3"/>
<path transform="translate(821,803)" d="m0 0 6 4 11 10 2 1-1 5-6-1-5-6-1-5-5-4v-2l-2-1z" fill="#FAF6E3"/>
<path transform="translate(1036,585)" d="m0 0h7l2 2v10l-7 1-4-4 2-4 5-2h-5z" fill="#BABABB"/>
<path transform="translate(981,1091)" d="m0 0h11l1 3-10 4h-8l-2-2v-4z" fill="#FAF6E3"/>
<path transform="translate(1019,800)" d="m0 0h2v2l6 2v-2l5 2 1 2-2 6-5-2-4 2v-2h-3v-3l-2-1z" fill="#FAF6E3"/>
<path transform="translate(1105,1277)" d="m0 0h5v8h4v-7l1-1h5l-1 7-4 5-4 1-5-4-1-2z" fill="#2196F3"/>
<path transform="translate(907,1048)" d="m0 0 7 1h4l1 2v7l-3 1v-5l-6 3-1 2-3-1v-9z" fill="#ADBACE"/>
<path transform="translate(1035,1021)" d="m0 0h5v8l4 1 1-9 5 1-1 7-5 5-5-1-4-5z" fill="#2196F3"/>
<path transform="translate(881,915)" d="m0 0h6l3 2v-2h2l1 7v2h3v2h-5l-1-1v-5l-3 2h-4v3h-3v-9z" fill="#B9B9BA"/>
<path transform="translate(1051,806)" d="m0 0 2 1v3h4 2l-1 6-2 4h-2v-5l-3 2h-4v-6h-2v5h-2l-1-5 4-2 1-2z" fill="#B9BABB"/>
<path transform="translate(1167,596)" d="m0 0h6v5l4 2-1 4-5 1-6-2-2-5z" fill="#1D1D1E"/>
<path transform="translate(1032,1107)" d="m0 0 9 2v1h-5l1 4 7 1-2 9h-3v-6l-2-1v7l-2-4-6-1v-2h3v-7l-2-1h2z" fill="#FDFDFD"/>
<path transform="translate(1080,765)" d="m0 0h3l1 5 3 3-3 2v7l3 2-1 3-5-1-1-1-1-10-2-1v-3l2-1z" fill="#DBE7FA"/>
<path transform="translate(1044,1092)" d="m0 0h4v2l3 2-1 4-1 9-5 1 3-1-1-7v-3h-7l-3-3 1-3 7 1z" fill="#FAF6E3"/>
<path transform="translate(1181,939)" d="m0 0h5l2 2 1-2h2v7h3v-6h3v7l-1 1h-6l-2-4h-5l2 2 2 1-1 1h-5l-1-1v-6z" fill="#ACB2BD"/>
<path transform="translate(1182,1365)" d="m0 0 7 1 4-1 2 7-2 2-4-1v-4h-2v4l-5 1-2-2v-5z" fill="#B3B4B5"/>
<path transform="translate(874,585)" d="m0 0h7l2 3-1 4h-7l1 2h6l-1 3-4 1-5-3v-8z" fill="#BABBBC"/>
<path transform="translate(999,1407)" d="m0 0h8l4 4 1 7-3 5-2 2h-9l-4-4-1-6 2-5zm0 2-4 5v5l4 4h7l4-4v-6l-4-4z" fill="#9BADBC"/>
<path transform="translate(1165,1337)" d="m0 0 5 1 1 2v9h-9v-9z" fill="#FDFDFD"/>
<path transform="translate(1176,1217)" d="m0 0 3 1-1 4 3 6 5 3-2 1-8-4h-16l-11 3 3-3 7-2 13-1-1-5 2-1 2 1z" fill="#ACB9CD"/>
<path transform="translate(1178,1048)" d="m0 0h2v2l8-1 1 2-1 3-7 1h-7-2l-4-1v-4l3-1h6z" fill="#B6B7B8"/>
<path transform="translate(1e3 585)" d="m0 0h6l3 3-1 4h-7l1 2h6l-1 3-4 1-5-3v-8z" fill="#B7B7B8"/>
<path transform="translate(1163,1363)" d="m0 0h2v7h2l1-5 5 1v7l-5 1-2-2-6 2-3-2 1-4 5 3-1-3-2-1v-2h3z" fill="#B1B1B2"/>
<path transform="translate(1130,899)" d="m0 0 5 1v11l-2 2-5-1-1-11z" fill="#BBBCBD"/>
<path transform="translate(1154,860)" d="m0 0 17 1-2 4-5 3-7-1-4-1v-5z" fill="#FAF6E3"/>
<path transform="translate(856,933)" d="m0 0 4 1 2 3 2-4 4 1v8l-3 1-1-2-1 2h-7z" fill="#B0B1B2"/>
<path transform="translate(968,859)" d="m0 0h2l1 5-2 2v-2h-2l-1 3-4 2h-3v2l-4-1-2-4h3v-2h3l1-2 6-2z" fill="#B4B5B6"/>
<path transform="translate(831,845)" d="m0 0h6v2l-3 1 2 4h-3v2h5v-8h3v8h4v2h-14l-1-1v-9z" fill="#B2B2B3"/>
<path transform="translate(990,787)" d="m0 0 7 1 1 5v7l-3-1-2-3-2 4h-2v-12z" fill="#B9BABB"/>
<path transform="translate(796,849)" d="m0 0 2 1v4l4-1v6l1 3h-3v-2h-2v2h-3v-7l-2 1-1 6h-2v-9l4-1z" fill="#A0B4B7"/>
<path transform="translate(909,789)" d="m0 0h5l7 2 3 1-2 6h-2l-1-2h-12l-1-6z" fill="#B9B9BA"/>
<path transform="translate(919,651)" d="m0 0 4 1 2 2 1-1h6l1 9-5 1v-2h-6v-8l-4 1z" fill="#A9B0B5"/>
<path transform="translate(983,524)" d="m0 0 2 1v6h2v-7h3l1 3 3-3 4 1v2h-3l-1 4h4v2h-6-2-7l-1-2v-6z" fill="#A5B7D2"/>
<path transform="translate(1012,1099)" d="m0 0 5 1h2 4v2h-2v7h-2l-2-4h-4v2h4v2l-4 1-4-4 1-5z" fill="#B2B3B4"/>
<path transform="translate(1111,857)" d="m0 0h9l9 1v1h-7l1 11-4 2-1-4 2-8-4 8-4-1v-2h3v-2h-3v-2h3v-2h-6z" fill="#FDFDFD"/>
<path transform="translate(1127,650)" d="m0 0 3 1v2l5 1v2l4-2 4 1-3 2v3l3 1v2h-5-3-2l-1-6h-5z" fill="#97A5B0"/>
<path transform="translate(1138,653)" d="m0 0h6 3l3 1h-2v3l5-1v4h-6v6l-2-4-2 1v-2l-4-1 1-4 2-1-6 1z" fill="#C9C9CA"/>
<path transform="translate(1140,899)" d="m0 0 4 1h2l4-1v3l-2 7h-2l-1-4h-5v2h4v2h-5l-2-2v-6z" fill="#B2B2B3"/>
<path transform="translate(885,990)" d="m0 0h15v1l-10 1v3h12l1 1 1 8 6 1v1h-8l-1-1v-8h-13l-3-3z" fill="#FDFDFD"/>
<path transform="translate(1135,839)" d="m0 0h7v2h11l1 3-1 2h-6v-3h-2v3h-4l-1-2h-3v2h-2z" fill="#BBBBBC"/>
<path transform="translate(1039,653)" d="m0 0h6l2 8-2 2h-10l2-1-1-6z" fill="#95A7B6"/>
<path transform="translate(917,581)" d="m0 0 3 1v3h6l2 3v8l-3 1-1-9h-3l-1 8-3 1z" fill="#B1B1B2"/>
<path transform="translate(1078,1204)" d="m0 0h2l3 7 2 10-5 1-2-2 2-1-2-2-3-10z" fill="#B6B7B8"/>
<path transform="translate(1142,884)" d="m0 0h3v15l-9 1v-4l4-3 1-8z" fill="#FAF6E4"/>
<path transform="translate(873,1282)" d="m0 0 5 1 1 5-4 2h-3l2 1v2h2v-2h3l-1 3-4 1-4-2-1-7z" fill="#C1C1BE"/>
<path transform="translate(1191,1048)" d="m0 0h4l5 1 9 1-1 6-2 1-1-3-5 1-5-1h-3z" fill="#B5B6B7"/>
<path transform="translate(906,1047)" d="m0 0h6v1l-5 1v9l2 1 1-3 6-2v5l2-1 1-6h1l2 6 4 1h2l1-3 3 4-5 1h-11l-2-3-3-1-2 4-4-1v-12z" fill="#FDFDFD"/>
<path transform="translate(846,915)" d="m0 0h6l2 2 1-2 3 1v9h-3l-1-5-2 2h-4v3h-2z" fill="#BBBCBD"/>
<path transform="translate(869,1302)" d="m0 0 4 2-1 2v7l1 2-10 1-3-2 1-2 1 1 7 1 1-4-3 2-4-1v-7l6 1z" fill="#EFF4FC"/>
<path transform="translate(864,845)" d="m0 0 5 1 2 3-1 6-1 1h-5l-3-4 1-6z" fill="#C4C4C5"/>
<path transform="translate(1110,825)" d="m0 0h2l1 16h-5l-2-3v-11z" fill="#FAF6E3"/>
<path transform="translate(823,647)" d="m0 0h3v19h-3v-7l-3-1v-7z" fill="#AAAFB4"/>
<path transform="translate(1012,525)" d="m0 0h1l1 7 7 1h3l4 2-4 1 6 3-3 3-3-1-1 2v-4l-5-1-6-4-1-4z" fill="#FDFDFD"/>
<path transform="translate(924,1304)" d="m0 0 6 3v-2h4l-2 9h-2v-4h-7v2h5v2h-6l-2-3 1-5z" fill="#B4B4B5"/>
<path transform="translate(1218,833)" d="m0 0 2 1v4l-4 4-9 4-3-4 1-3 4 2v-4l5-1 3-1z" fill="#B9B9BA"/>
<path transform="translate(1088,682)" d="m0 0h5l2 3-1 7-6 1-2-2v-7z" fill="#C4C4C5"/>
<path transform="translate(1146,524)" d="m0 0 7 1 1 4-2 2h-3v6h-4l-1-2v-7z" fill="#7BB4F5"/>
<path transform="translate(1069,521)" d="m0 0 3 1v11h-8l-1-7 2-2h4z" fill="#BEC2C9"/>
<path transform="translate(1151,520)" d="m0 0h10l4 3v3h2v2h-6l-2-2-1-2h-4l-1 2-4-1-1-2z" fill="#389EF3"/>
<path transform="translate(877,845)" d="m0 0 3 3 3-3 1 3-2 7h-3l-1-2-2 3-3-1-1-9h2v3h2z" fill="#B1B1B2"/>
<path transform="translate(836,1363)" d="m0 0h2l1 3 6 1-2 7-9-1-5 1-1 2 1-4 5-1 1-5z" fill="#ACC8F4"/>
<path transform="translate(963,1313)" d="m0 0 5 2 2 2-1 5h-11v-5z" fill="#B9B9BA"/>
<path transform="translate(1213,1231)" d="m0 0h8v46h-1l-1-37-3-3-1-4h-2z" fill="#AFB8B3"/>
<path transform="translate(982,977)" d="m0 0 7 1 1 2h-3l1 5v3l-5 1-2-2-2-5 1-4z" fill="#BCBEC0"/>
<path transform="translate(914,1339)" d="m0 0 6 3v10l-3-1-1-6h-3l-2 7-2-1v-8z" fill="#FDFDFD"/>
<path transform="translate(1011,972)" d="m0 0h3l1 15-1 5-4-1v-18z" fill="#AEB1B4"/>
<path transform="translate(1029,540)" d="m0 0 6 2v2l2 1-3 3-1 4h-6l-1-11z" fill="#A2C3F7"/>
<path transform="translate(885,1304)" d="m0 0h7l3 4v5h-3v-6h-3v6h-3v-6l-2 1-1 6h-2v-9z" fill="#B5B5B6"/>
<path transform="translate(1073,899)" d="m0 0 4 1 1 1v7l-5 2-1 2h-2v-12z" fill="#BEBEBF"/>
<path transform="translate(1070,806)" d="m0 0 3 1 1 8h-2l-1 2h-6l-2-2 1-5 4-1 2 1z" fill="#C8C9C9"/>
<path transform="translate(822,845)" d="m0 0h5l2 4v5l-2 2h-6v-10z" fill="#B6B7B8"/>
<path transform="translate(931,622)" d="m0 0h10l3 2-1 3-1-3h-10l-1 2h-2l-2 6 4-2h3l-1 5h-8l-1-5 4-6z" fill="#88B7C2"/>
<path transform="translate(1049,1219)" d="m0 0 5 1 1 3h-3v2h2l1 5-3 3h-4l-1-7v-3z" fill="#B9BABB"/>
<path transform="translate(837,576)" d="m0 0 3 3v10l-10 15h-3l-3-6 1-4 2 3 2 2 7-9h2v-9z" fill="#81B1C6"/>
<path transform="translate(1173,577)" d="m0 0 6 2 1 8-1 1v6l-2 5-2 1-1-7 2-4 1-4 1-2-7-2z" fill="#FAF6E3"/>
<path transform="translate(1143,535)" d="m0 0h2l10 16v2h3l2-10 5-2 2-1-2 4-6 10-4 1-7-10-5-8z" fill="#EFF4FC"/>
<path transform="translate(831,522)" d="m0 0 5 1-2 2 1 5-2 6h-2l-1-2-4-1 3-9h2z" fill="#B8B8B9"/>
<path transform="translate(913,936)" d="m0 0 5 1 5 9-5 1-6-3v-6z" fill="#FAF6E3"/>
<path transform="translate(821,574)" d="m0 0 2 1v3l9 1 2 3-1 5-2 3h-2v-2h2l1-5-1-2-5-1v2l-5 3-1 2-3-1 2-9z" fill="#A8B0B8"/>
<path transform="translate(967,521)" d="m0 0h6l1 1v8l-5-1v3l2 1h-5v-11z" fill="#A9B4C2"/>
<path transform="translate(1061,1115)" d="m0 0h2l1 2h6l3-2h3v2l7 1-1 3-7-1-2 1v-2l-3 1h-5l-2 2v-3l-3 1-2-1v2h-2v-2l-2-1z" fill="#FDFDFD"/>
<path transform="translate(843,940)" d="m0 0h11l1 4 8 1-1 2-9 1-8-4z" fill="#A9D8B6"/>
<path transform="translate(1043,804)" d="m0 0 9 1-2 6-1-4h-2l-1 3-5 2-1-2-8-1v-3h8z" fill="#FDFDFD"/>
<path transform="translate(1199,611)" d="m0 0 5 1 1 2v7l-1 1h-6l-1-5 1-5z" fill="#B1BBB5"/>
<path transform="translate(1048,1236)" d="m0 0 6 1 1 3-3 2 1 3v6l-3 1-3-1 1-5-1-2z" fill="#B7B7B8"/>
<path transform="translate(886,845)" d="m0 0 4 3 3-3 1 1v10l-4-1-1-2-3 3-1-1v-9z" fill="#B2B3B4"/>
<path transform="translate(819,733)" d="m0 0h1l1 11-4 4-1-4-11 1-2 1-3-6 1-3 2-1 1 5 15 1z" fill="#6CAFF5"/>
<path transform="translate(980,648)" d="m0 0 4 1 4 5 2 9-5 1-2 3-2-1 3-4h4l-2-7-2 5h-5l2-7 2-2-4-2z" fill="#C4C9CE"/>
<path transform="translate(1112,578)" d="m0 0 4 2v10l-1 2-5-1v-11z" fill="#1D1C1C"/>
<path transform="translate(1217,1214)" d="m0 0h4v8l-1-2h-8l-3-1 1 8-3-2v-7h2l1-3z" fill="#ADAEAF"/>
<path transform="translate(1198,1138)" d="m0 0h5l1 7 3 4-1 3-4 1-2-5-4-9z" fill="#B8B8B9"/>
<path transform="translate(1141,996)" d="m0 0 4 1 2 1 1-2 1 4v6l-2 3h-5l-1-6 2-3h-2z" fill="#B9B9BA"/>
<path transform="translate(956,1099)" d="m0 0 4 1 2 2-1 6-1 1h-5l-2-2v-6z" fill="#CECECF"/>
<path transform="translate(1093,939)" d="m0 0h7l1 4h2l1-4 2 2-4 10-3 1v-8l-1-2h-2l-1 6h-2z" fill="#A7AEB6"/>
<path transform="translate(982,1362)" d="m0 0 5 1v2l-2 1 5 4h4l-1 4-6-1-4 1-2-1v-3l4 1v-2l-4-2z" fill="#B6B6B7"/>
<path transform="translate(993,1007)" d="m0 0h5l2 5 1 1v6l-4 1 1-3-4-1-2-4z" fill="#B7B8B9"/>
<path transform="translate(1136,859)" d="m0 0 4 1 1 2 3-3 1 1v9l-4-1h-2l-3 1z" fill="#B2B2B3"/>
<path transform="translate(869,1296)" d="m0 0 10 1v3l-4 1-2 4-5-4-4-1v-3z" fill="#9EC1F7"/>
<path transform="translate(1007,1256)" d="m0 0 6 2v3h-3l1 4v7l-5-1v-14z" fill="#B6B7B8"/>
<path transform="translate(1016,1204)" d="m0 0 6 1v4l-1 1 1 8-4 2-2-1 1-5z" fill="#B8B8B9"/>
<path transform="translate(1025,1118)" d="m0 0 4 1h6l1 1v5h-2l-1-4-2 5h-2v-3l-2 1 1 2h-5l-1-1v-5z" fill="#B9BABB"/>
<path transform="translate(962,1100)" d="m0 0 3 1v2h2v-3h3l1 2 3-2 1 2-3 7h-2l-2-2-1 2-3-1z" fill="#B2B2B3"/>
<path transform="translate(958,1048)" d="m0 0 6 1 1 5v5l-5-2-2 2-1-1v-9z" fill="#B4B5B6"/>
<path transform="translate(1e3 1021)" d="m0 0 2 2-2 3 5 5 1 4-5 1-1-5h-2l-1-6-3-1 1-2z" fill="#B4B5B6"/>
<path transform="translate(992,992)" d="m0 0 4 2 1 3 5-1-1 4-4 2-5-1-2-3v-5z" fill="#FAF6E3"/>
<path transform="translate(1039,899)" d="m0 0 5 1 1 1v8h-7l-1-5 1-4z" fill="#B9B9BA"/>
<path transform="translate(879,753)" d="m0 0 6 2v3h-2l1 6-1 5-5-1 1-9z" fill="#B6B6B7"/>
<path transform="translate(907,585)" d="m0 0h6l2 1v3l-6-1-1 5 4 1h3l-1 3-5 1-5-4v-6z" fill="#B4B5B6"/>
<path transform="translate(865,1276)" d="m0 0 3 1v17h-3l-1-1v-16z" fill="#8EBEBF"/>
<path transform="translate(863,1274)" d="m0 0h6l3 9-4 2-1-8h-2l-1 7-10-2 1-2h7v-5z" fill="#FCFCFC"/>
<path transform="translate(1071,1187)" d="m0 0h1v5h2l2 5 2 4-6 2 1-3-4-4-1-4-2-2h2v-2z" fill="#BCBCBD"/>
<path transform="translate(1018,1187)" d="m0 0 5 2v9l-2 3h-4l-1-7z" fill="#B2B3B4"/>
<path transform="translate(941,1099)" d="m0 0 5 1v9h-7l-1-5 1-4z" fill="#B6B7B8"/>
<path transform="translate(1126,1033)" d="m0 0 2 1 1 6 3 3v4l-4 1-1-4-4-4-2-5z" fill="#B6B6B7"/>
<path transform="translate(879,933)" d="m0 0h7l1 5v5h-3l-1-2-4 2z" fill="#B5B5B6"/>
<path transform="translate(1182,720)" d="m0 0 4 2 2 3-4 5-4 3-5-1-4-5-3-3 3-3 2 1v4l4 3 5-2 2-4z" fill="#454B50"/>
<path transform="translate(1186,679)" d="m0 0 7 2-1 3h-2l1 10-3 2-3-2 2-4-1-1z" fill="#B7B7B8"/>
<path transform="translate(1119,589)" d="m0 0h3l-1 5-5 4-1 3h-3v-4l-5-2-2-5 3 1 3 3 7-1z" fill="#8AA8C0"/>
<path transform="translate(836,585)" d="m0 0 1 4-8 12-3-4 1-4 5-5z" fill="#1D1C1C"/>
<path transform="translate(905,654)" d="m0 0 4 2v2h2l1-2v7h-12l-1-4 2-3 4 1-3 1 4 1z" fill="#A9B2BA"/>
<path transform="translate(1061,585)" d="m0 0h6l1 3-5-1 1 2 5 2v5l-5 2-4-2v-2l6 1-1-2-5-3z" fill="#B0B1B2"/>
<path transform="translate(1167,526)" d="m0 0 2 3-1 8-3 4-3-1 1-2v-9l-2-1 3-1 3 1z" fill="#8ABAF6"/>
<path transform="translate(1193,1284)" d="m0 0v3l-7 6-9 4-11 2h-10v-3l-2-1 6 1h12l11-4 8-6z" fill="#A0BDE8"/>
<path transform="translate(1006,1240)" d="m0 0 3 1 4-1v4l-2 1 2 6v2h-7l1-5-1-4z" fill="#B5B5B6"/>
<path transform="translate(1142,1013)" d="m0 0 7 1-1 3h-2l1 11-5-1z" fill="#B3B4B5"/>
<path transform="translate(1053,896)" d="m0 0 5 1 1 3h-5l5 3v5l-1 1h-6l-2-4 7 2-3-3-4-3 1-4z" fill="#AFB0B1"/>
<path transform="translate(1141,825)" d="m0 0h3v14l-6-2 1-10z" fill="#FAF6E3"/>
<path transform="translate(968,766)" d="m0 0 5 2v3l-6-1v6l4 1v-2h2l-1 4-5 1-4-4 1-7z" fill="#B6B6B7"/>
<path transform="translate(1030,580)" d="m0 0 3 1v15h-3l-1-7-3 1 3-9z" fill="#B4B5B6"/>
<path transform="translate(1123,524)" d="m0 0h5l2 2-1 7h-6l-2-3 1-5z" fill="#C0C5CA"/>
<path transform="translate(1061,1365)" d="m0 0 7 1v6l-4 2-4-1-2-2 1-4z" fill="#BFBFC0"/>
<path transform="translate(1084,1337)" d="m0 0 3 1v4l5 1-1 2h-4l-1 5h-2l-1-4-4-1v-3l4-1z" fill="#AEB0B3"/>
<path transform="translate(864,1301)" d="m0 0 5 1 1 3h-3l-4-1 1 7 6-1-1 4h-7l-2-2v-8z" fill="#ABB0B8"/>
<path transform="translate(907,1096)" d="m0 0h5l2 4-5-1-1 1v6l6-1-2 4h-6l-2-3v-7z" fill="#AFB0B2"/>
<path transform="translate(968,979)" d="m0 0 2 1-1 3h4l-1-4 5 2v5l-3 1-5 1v2h-2l-1-2v-6z" fill="#6CA3CE"/>
<path transform="translate(1063,924)" d="m0 0h8l2 1v2l4 2-1 2-6 1-5-4-4-2z" fill="#71B1F5"/>
<path transform="translate(876,915)" d="m0 0 1 2-1 3h2l1-5h1v10h3v2l-5 1-3-3-4-2 1-2h3v-2h-3v-2z" fill="#FDFDFD"/>
<path transform="translate(1115,899)" d="m0 0 5 1v9h-7l-1-4 1-5z" fill="#B8B8B9"/>
<path transform="translate(1146,774)" d="m0 0h5l2 3-1 5-1 1h-5l-2-2v-5z" fill="#2196F3"/>
<path transform="translate(1109,682)" d="m0 0 2 4h3l1-4 2 1v10h-3l-2-4-2 4h-2v-10z" fill="#B1B2B3"/>
<path transform="translate(1074,682)" d="m0 0h11v2l-2 1-1 8h-2l-1-8-3-1v8l-3 1v-10z" fill="#B2B3B4"/>
<path transform="translate(964,1158)" d="m0 0 6 2v3h-2l1 10-5 1-1-3 2-2-1-5z" fill="#B4B5B6"/>
<path transform="translate(1065,1079)" d="m0 0 5 1 1 1v7l-1 1h-5l-2-2 1-7z" fill="#B7B7B8"/>
<path transform="translate(1100,654)" d="m0 0h1v9h-12v-8l4 3h6z" fill="#FDFDFD"/>
<path transform="translate(1059,541)" d="m0 0 5 1 1 3-6-1v7l4 1-1-5 4 2-2 5h-6l-3-5 1-6z" fill="#AAB1BB"/>
<path transform="translate(1075,1099)" d="m0 0 4 1 1 8-1 1h-6l-1-5 1-4z" fill="#B9BABA"/>
<path transform="translate(1212,608)" d="m0 0 3 1 1 8-4 1v-4l-2 1-2 7-2-1v-8l5-2z" fill="#9EC3B9"/>
<path transform="translate(854,1282)" d="m0 0h8l1 1v13l-2 2 1-14-2 1 1 4-3 2h-3l-1-3 1-4-2-1z" fill="#B8D1F5"/>
<path transform="translate(1057,1188)" d="m0 0h7l3 3v2l-13 1-2-3z" fill="#FAF6E3"/>
<path transform="translate(1090,1079)" d="m0 0 5 1 1 4-2 5-5-1-2-2 1-5z" fill="#B3B3B4"/>
<path transform="translate(1012,993)" d="m0 0h5l1 5-3 2h-7l-2-4z" fill="#FAF6E3"/>
<path transform="translate(897,981)" d="m0 0 2 2v3h-15l-2-3 1-1z" fill="#FAF6E3"/>
<path transform="translate(1077,933)" d="m0 0h1v9l-4 6-2-1v-3h-12v-1h13l2-9z" fill="#5FABF5"/>
<path transform="translate(1086,859)" d="m0 0h6l2 2-1 4-5 1v3h-3v-9z" fill="#B1B2B3"/>
<path transform="translate(916,1096)" d="m0 0 2 1v2l5 1v9h-2l-1-6-2-1v6h-3v-11z" fill="#B3B4B5"/>
<path transform="translate(1104,896)" d="m0 0 2 1v2l5 1v9h-2l-1-6-2-1v6h-3v-11z" fill="#B1B2B3"/>
<path transform="translate(1105,541)" d="m0 0 6 1v3l-5-2v3l5 2 1 4-2 2h-5l-2-4 6 2v-3l-5-2-1-4z" fill="#ABAFB0"/>
<path transform="translate(812,1362)" d="m0 0h5v3 4h-3v2l4 1-1 2h-5l-1-1v-10z" fill="#8CB6EA"/>
<path transform="translate(979,1099)" d="m0 0 4 1 1 3h5l-1 2h-4v4l-3-1v-6l-2 1-1 6h-2v-9z" fill="#B3B4B5"/>
<path transform="translate(888,933)" d="m0 0 4 1 4-1-1 6 1 4-3-1v-2h-2v3h-3z" fill="#B2B3B4"/>
<path transform="translate(1024,870)" d="m0 0 11 1 2 1v2l-9 5-4-7z" fill="#FAF6E3"/>
<path transform="translate(1099,859)" d="m0 0h3v2l5-2-1 6 3 4-5-1-1-1-1 2h-3z" fill="#B0B1B2"/>
<path transform="translate(1135,1313)" d="m0 0h2l2 4-1 3h2l-1 3h-5l-4-5z" fill="#B3B3B4"/>
<path transform="translate(931,1049)" d="m0 0 4 2v2h2v-4h2v10h-3l-3-3v3h-2z" fill="#ABAFB4"/>
<path transform="translate(1122,859)" d="m0 0h7l1 5-2 2h-3v3h-3z" fill="#AFB0B1"/>
<path transform="translate(1166,1167)" d="m0 0 4 1 1 6-2 2h-5l-2-5z" fill="#1D1C1C"/>
<path transform="translate(1e3 976)" d="m0 0 3 1v12 3l-2 1-3-1-1-2v-8l2 1z" fill="#A9B1B8"/>
<path transform="translate(1041,862)" d="m0 0 3 1-1 6-6 2-5-6z" fill="#FAF6E3"/>
<path transform="translate(877,788)" d="m0 0 4 1v2h-3v3l8-4v2h3v4h-5-3l-5-1v-6z" fill="#B2B3B4"/>
<path transform="translate(976,770)" d="m0 0h5l1 1v8l-1 1h-5l-2-4 2-2h3v-2l-4 1z" fill="#B5B6B7"/>
<path transform="translate(809,647)" d="m0 0h10l-2 2-2 5h-5l1 4-3-3v-7z" fill="#B0B5B9"/>
<path transform="translate(1222,1441)" d="m0 0 1 2-7 13-7 5-3-1 5-5 9-11z" fill="#A0ACB7"/>
<path transform="translate(1013,1227)" d="m0 0 5 2v13h-4z" fill="#FAF6E3"/>
<path transform="translate(975,1065)" d="m0 0h5v10h-6v-9z" fill="#A9D8B6"/>
<path transform="translate(1018,899)" d="m0 0 4 1 1 5h-5v2h4v2h-6l-1-2v-6z" fill="#B2B3B4"/>
<path transform="translate(782,852)" d="m0 0 5 1 1 1v8l-6 1z" fill="#B3BDB7"/>
<path transform="translate(911,775)" d="m0 0h5v12l-5-1z" fill="#A9D8B6"/>
<path transform="translate(995,974)" d="m0 0 3 1 1 3h-2v-2h-2l1 14v-2-7l2-1 1 8 1 4-3 1-3-2-1-10v-4z" fill="#AFB0B1"/>
<path transform="translate(883,928)" d="m0 0 4 1 4 4h-3v10l3 1h-7l3-1-1-5v-4l-7-1 2-4z" fill="#FCFCFC"/>
<path transform="translate(860,915)" d="m0 0 3 2 4-2-1 6 1 4-5-2v2h-3v-9z" fill="#B3B3B4"/>
<path transform="translate(1075,809)" d="m0 0 5 1h2l4-1v2l-2 2h-3l-2 4-5-1v-6z" fill="#C1C1C2"/>
<path transform="translate(1206,791)" d="m0 0h1v8l-3 4-4 2h-10l-3-2 3-1h9l3-4h4z" fill="#B7BCC4"/>
<path transform="translate(789,738)" d="m0 0 4 1 2 4-5 2h4l-1 3-5-1-2-2 1-5z" fill="#B2B6B9"/>
<path transform="translate(1064,682)" d="m0 0 7 1 1 4-5 3-1 3h-2z" fill="#BABBBC"/>
<path transform="translate(880,623)" d="m0 0h3l1 4 3-1v8h-7z" fill="#9FB5B8"/>
<path transform="translate(1117,1365)" d="m0 0 4 1 1 5-2 3-5-1-1-1v-5z" fill="#B5B6B7"/>
<path transform="translate(948,1365)" d="m0 0 5 1 1 4-2 4-5-1-1-1v-5z" fill="#B5B5B6"/>
<path transform="translate(901,915)" d="m0 0 3 1 3 9-5-1-5 1z" fill="#B2B3B4"/>
<path transform="translate(1146,859)" d="m0 0h7v2h-4v2h3v2h-3v2h4l-1 3h-5l-1-1z" fill="#B2B3B4"/>
<path transform="translate(1e3 790)" d="m0 0 4 1 1 5h-5v2h5l-1 2h-5l-2-2v-5z" fill="#B5B5B6"/>
<path transform="translate(825,739)" d="m0 0h1v14l-7-3 2-5z" fill="#FAF6E3"/>
<path transform="translate(819,729)" d="m0 0 4 3v7l-2 3-1-2-1 2h-15v-1h14v-8l-3-1 3-1z" fill="#98BDF2"/>
<path transform="translate(1057,682)" d="m0 0 3 1 3 9h-3l-6 1-1-2z" fill="#B1B2B3"/>
<path transform="translate(1125,544)" d="m0 0 5 1 1 4-5 1v2l4 1-5 1-2-2v-6z" fill="#B6BAC1"/>
<path transform="translate(995,526)" d="m0 0 5 3 1 5-8 1h-10v-1l6-1 2-4 1 3 6 1v-2h-4z" fill="#E5EEFB"/>
<path transform="translate(872,933)" d="m0 0h3l3 7v3l-6-1-3 1 2-9z" fill="#B0B0B1"/>
<path transform="translate(918,915)" d="m0 0h6v2h-4v2l4 1-3 3 4 2-1 1-7-1v-9z" fill="#B3B3B4"/>
<path transform="translate(1026,899)" d="m0 0 5 1 1 7-1 2h-6l-1-3h4l-4-2 1-4z" fill="#B5B5B6"/>
<path transform="translate(1093,544)" d="m0 0 4 1 1 4-5 1v2h4v2h-5l-2-2v-6z" fill="#ACB4BD"/>
<path transform="translate(1095,524)" d="m0 0 5 1 1 1v7h-7l-1-4 4-2h-3z" fill="#AFB6C0"/>
<path transform="translate(809,511)" d="m0 0h27l1 4-1 4-5-1-1-3 2-2-23-1z" fill="#A5AEB5"/>
<path transform="translate(774,1431)" d="m0 0h2l8 19 2 4-5-4-6-11z" fill="#9DACB9"/>
<path transform="translate(1028,1099)" d="m0 0 4 2 2 6h-2v2h-2l-1-6-2-1v6l-3 1v-9z" fill="#B1B2B3"/>
<path transform="translate(926,793)" d="m0 0h7l3 1 1 3-3 2-8-1-1-4z" fill="#FAF6E3"/>
<path transform="translate(811,721)" d="m0 0 2 3-9 1-1 3h-2l-1 4v7l3 6-4-2-1-3v-10l6-7z" fill="#E8EFFB"/>
<path transform="translate(890,626)" d="m0 0h5l2 3v3l-9 2 1-7z" fill="#ABBAB6"/>
<path transform="translate(889,1362)" d="m0 0h5l1 3-6 1v4l7 1-2 3h-5l-3-3v-6z" fill="#B3B4B5"/>
<path transform="translate(1051,1362)" d="m0 0h5l1 3h-6v6h7l-2 3-6-1-2-3v-5z" fill="#B4B4B5"/>
<path transform="translate(841,1304)" d="m0 0 4 2 1 6-1 2-3-1v-6l-2 1-1 6-2-1v-8z" fill="#B2B3B4"/>
<path transform="translate(859,1284)" d="m0 0h3v11l-2 5h-7l-2-4 7 1v-4l2-5z" fill="#8BB2DD"/>
<path transform="translate(909,1098)" d="m0 0 6 1v7l-7 1-1-1v-6z" fill="#FDFDFD"/>
<path transform="translate(915,1010)" d="m0 0 3 3v2l-7 1-6-2-1-3z" fill="#FAF6E3"/>
<path transform="translate(826,863)" d="m0 0 5 2 5 4-1 5-7-3z" fill="#FAF6E3"/>
<path transform="translate(883,738)" d="m0 0 2 1-1 4v8l-5-2-1-5 1-4z" fill="#B3B3B4"/>
<path transform="translate(1177,720)" d="m0 0 5 2v4l-2 2-5-1-2-4z" fill="#FDFDFD"/>
<path transform="translate(782,719)" d="m0 0h7v9l-7-2z" fill="#A9D4B5"/>
<path transform="translate(851,653)" d="m0 0h6l2 3v3h-6l-1 3-2-3v-5z" fill="#8EA5B7"/>
<path transform="translate(1e3 649)" d="m0 0 7 1-2 6-3-1-2-4v7l3 1-1 4h-3v-13z" fill="#ABB7C0"/>
<path transform="translate(1037,544)" d="m0 0h3l1 6h-4v2l4 1-5 1-3-4 2-5z" fill="#A9B0BA"/>
<path transform="translate(1046,524)" d="m0 0h5l1 1v8h-7l1-5h3v-2l-4 1z" fill="#B0B5BD"/>
<path transform="translate(1019,1363)" d="m0 0 3 1v8l-3 2-5-1-1-4 2-1 1 2 3 1v-4h-3v-2h3z" fill="#B3B4B5"/>
<path transform="translate(1e3 1049)" d="m0 0 3 1 2 5v3h-6l-3 1 3-9z" fill="#B0B1B2"/>
<path transform="translate(982,1048)" d="m0 0 5 2 1 1v5l-6 1-2-5v-3z" fill="#CFD0D0"/>
<path transform="translate(942,1048)" d="m0 0h5l-1 4 1 3h-4v2l4 1-2 2-4-1v-10z" fill="#B1B2B3"/>
<path transform="translate(955,972)" d="m0 0 7 2-2 3-6-1h-2l2 8-5-3 1-7z" fill="#77A6CB"/>
<path transform="translate(1044,629)" d="m0 0 1 2-1 3h-14l1-4h10z" fill="#BBBBBC"/>
<path transform="translate(938,1304)" d="m0 0 4 1 1 8-1 1h-6v-3h3l-3-2v-4z" fill="#B7B7B8"/>
<path transform="translate(1042,1116)" d="m0 0 2 1v2l4 1 2-1-2 9-3 1v-6l-3 3-1-2z" fill="#B4B5B6"/>
<path transform="translate(989,1049)" d="m0 0 3 1v7l2-1 1-7h2v9l-1 1h-5l-2-2z" fill="#AFB0B1"/>
<path transform="translate(954,975)" d="m0 0 6 1h3v3l-5-1-3-1v2l8 5v6l-2 1v-6l-9-5v-4z" fill="#B0B1B2"/>
<path transform="translate(1134,544)" d="m0 0 5 1v2l-4 1 4 1 1 3-1 2h-6l-1-3 4 1v-2l-4-2z" fill="#AAB4B3"/>
<path transform="translate(913,1365)" d="m0 0 4 1 2 1v5l-4 1v-5h-2v5l-3-1v-6z" fill="#B5B6B7"/>
<path transform="translate(998,1099)" d="m0 0 5 2v7l-3 1v-7h-3v7h-2v-9z" fill="#B0B1B2"/>
<path transform="translate(933,1099)" d="m0 0 3 1 1 2v6l-3 1v-7l-2 1-1 6h-2v-9z" fill="#B0B1B2"/>
<path transform="translate(1110,1091)" d="m0 0h5l1 1v5l-2 2-4-1-2-2 1-4z" fill="#FDFDFD"/>
<path transform="translate(1085,976)" d="m0 0 3 1 2 4h-3l-1 3-3 1-3-4 1-4z" fill="#BBBCBC"/>
<path transform="translate(1108,939)" d="m0 0h5l1 5-4 2 4 1-1 1h-5l-2-3 1-5z" fill="#ABB2BD"/>
<path transform="translate(869,915)" d="m0 0h7l-1 2h-3v2h3v2l-3 2 4 2-1 1h-5l-1-1z" fill="#B1B2B3"/>
<path transform="translate(1e3 770)" d="m0 0h6l1 1v8h-2l-1-6-2-1v6l-4 1 1-8z" fill="#B4B4B5"/>
<path transform="translate(808,730)" d="m0 0 2 1-5 5-1 5-4-2h-1v-7z" fill="#9FC2F5"/>
<path transform="translate(1046,682)" d="m0 0 6 1v3l-4-1-1 5 5-1-1 4h-5l-2-2v-7z" fill="#B1B2B3"/>
<path transform="translate(873,626)" d="m0 0 5 1 1 7-5-1-3 1v-6z" fill="#ADBAB2"/>
<path transform="translate(1172,586)" d="m0 0h4l1 5-2 4 1 4 4-1-4 4-4-1 1-11z" fill="#B7BBBE"/>
<path transform="translate(1132,524)" d="m0 0h6l2 3v5l-3 1v-7h-3v6h-3v-6z" fill="#A9B6B8"/>
<path transform="translate(1e3 524)" d="m0 0 5 1 1 5h-5v2l4 1h-5l-2-2 1-6z" fill="#A6B0BF"/>
<path transform="translate(814,1284)" d="m0 0h8v6l-2 3h-5l2-2 1-4h-5z" fill="#87B4E7"/>
<path transform="translate(1066,1099)" d="m0 0 4 1 1 2v6l-3 1v-7h-3v7h-2v-9z" fill="#B1B1B2"/>
<path transform="translate(1129,858)" d="m0 0h5v11l-3 1-1-4-2-1 1-5z" fill="#DDDDDE"/>
<path transform="translate(1100,807)" d="m0 0h2v10h-5l-1-1v-6l4-1z" fill="#BFC0C1"/>
<path transform="translate(1153,657)" d="m0 0 1 4 4 1 2 1-1 4h-2l-1-5-6 2-1 3h-2v-7h6z" fill="#A2AAB1"/>
<path transform="translate(812,488)" d="m0 0h4v2l-16 4-7 4-2-1 5-5z" fill="#AAADB0"/>
<path transform="translate(1052,1289)" d="m0 0 7 1 1 4v2h-8l-1-4z" fill="#BCBCBD"/>
<path transform="translate(1009,1119)" d="m0 0 6 1 1-1h5v2h-3l-1 3h4v2h-5l-1-2h-2l-1 2-2-1z" fill="#B9BABB"/>
<path transform="translate(1019,1048)" d="m0 0 5 1-2 3 2 2-3 1v2l4 1v1h-7v-10z" fill="#B1B2B3"/>
<path transform="translate(1038,1016)" d="m0 0h12v4h-15v-3z" fill="#B6B6B7"/>
<path transform="translate(1089,935)" d="m0 0 3 1-1 2h-5l1 2 4 1v2l-4 1-1 4h-2v-12z" fill="#AEB1B2"/>
<path transform="translate(1157,839)" d="m0 0 8 1v6l-6 1-2-1v-4z" fill="#BDBDBE"/>
<path transform="translate(841,649)" d="m0 0 6 1 1 5-1-2h-4v3h3v2h-6v-8z" fill="#8094A4"/>
<path transform="translate(1178,599)" d="m0 0 4 1 3 3-4 4h-5v-6z" fill="#799AB6"/>
<path transform="translate(936,1318)" d="m0 0 10 1 3 1v2l-19 1-1-2z" fill="#BEBEBF"/>
<path transform="translate(1189,939)" d="m0 0h2v7h3v-6h3v7l-1 1h-6l-2-6z" fill="#A7B4C7"/>
<path transform="translate(909,915)" d="m0 0h5l2 3h-5v5l5-1-1 3-5 1-3-4 1-6z" fill="#B2B2B3"/>
<path transform="translate(1096,899)" d="m0 0 5 1 1 3h-5v4l5-1-1 3h-6l-1-2v-6z" fill="#B3B3B4"/>
<path transform="translate(1032,809)" d="m0 0h8l2 3-1 5h-5l-1-3 1-3z" fill="#BABABB"/>
<path transform="translate(1017,754)" d="m0 0h1v24l-4-2-2-4 2-2h3z" fill="#B7C8E1"/>
<path transform="translate(935,626)" d="m0 0h3v2l4 2 1 5 3 2v-7h1v8h-5l-4-4-1-5-2-1-1 2z" fill="#68AED1"/>
<path transform="translate(939,625)" d="m0 0 4 1 3 4v7l-4-2-2-6z" fill="#1D1C1C"/>
<path transform="translate(1103,524)" d="m0 0h6l1 3h2l-1 5-3 1v-7h-3v6l-2 1z" fill="#A8B2C1"/>
<path transform="translate(1168,1365)" d="m0 0 5 1v7l-5 1-1-1v-7z" fill="#B4B5B6"/>
<path transform="translate(1110,1363)" d="m0 0h2l2 3v7l-2 1-2-1-1-5-1 5h-1v-7z" fill="#C1C1C2"/>
<path transform="translate(1191,1125)" d="m0 0 2 1v2l4 2 2 4-6 2-3-7z" fill="#B4B4B5"/>
<path transform="translate(1094,1116)" d="m0 0 2 4-1 6h-5l-1-1v-5z" fill="#BEBFC0"/>
<path transform="translate(1055,1070)" d="m0 0 8 1 4 2v2h-12z" fill="#A9D8B6"/>
<path transform="translate(1018,798)" d="m0 0 12 1 2 2-1 6-2-4-2-1v2l-4-1-2-1v-2l-3-1z" fill="#B2B3B6"/>
<path transform="translate(897,653)" d="m0 0h10l-1 2 1 7-1-3h-5l1-2-3-1-5 1 1-3z" fill="#8799A7"/>
<path transform="translate(993,581)" d="m0 0h3v15l-3 1z" fill="#B2B3B4"/>
<path transform="translate(846,1296)" d="m0 0 4 2 3 5-8 1-1-1v-6z" fill="#9EC1F7"/>
<path transform="translate(1105,1271)" d="m0 0 1 2 14-2v5h-16z" fill="#B7B9BC"/>
<path transform="translate(1061,900)" d="m0 0h2v7h3v-7h2l1 7-1 2h-6l-2-4z" fill="#AEAFB0"/>
<path transform="translate(798,721)" d="m0 0h9v2l-5 3-3 3h-2v-7z" fill="#A9D8B6"/>
<path transform="translate(1177,715)" d="m0 0 5 2 2 3-7-1-2 2-5 2-1 3h-2l1-4z" fill="#748491"/>
<path transform="translate(1157,653)" d="m0 0h7l3 4-2 1-1 3-4-1-1-1v-5z" fill="#BAC2C9"/>
<path transform="translate(897,585)" d="m0 0h6l-1 3h-2l-1 9-3-1v-9z" fill="#B3B4B5"/>
<path transform="translate(1169,573)" d="m0 0h6l4 5-2 2-4-2-1 3 4 2-8-1 2-5 3-3z" fill="#B6B6B7"/>
<path transform="translate(1109,1278)" d="m0 0h5l1 7-4 2-2-2z" fill="#A2B9DD"/>
<path transform="translate(1049,1095)" d="m0 0 2 1-1 4-1 9-5 1 3-1-1-7v-3l-3-2z" fill="#FDFDFD"/>
<path transform="translate(1055,862)" d="m0 0h13l-1 3-10 2z" fill="#FAF6E3"/>
<path transform="translate(838,846)" d="m0 0h3v8h4v2h-14v-1l7-1z" fill="#B8B8B9"/>
<path transform="translate(970,587)" d="m0 0 5 1v6l-5 1-2-2 1-5z" fill="#FDFDFD"/>
<path transform="translate(812,1302)" d="m0 0h2v10h5v2h-7l-1-1v-10z" fill="#B4B5B6"/>
<path transform="translate(809,1276)" d="m0 0h8l2 1v3h-8l-3 3h-2l1-4z" fill="#94B4DC"/>
<path transform="translate(992,1039)" d="m0 0 2 1v8h-5l-2-5z" fill="#FAF6E3"/>
<path transform="translate(957,587)" d="m0 0 4 1 1 5-2 2-4-1-1-5z" fill="#FDFDFD"/>
<path transform="translate(1040,1290)" d="m0 0 8 1-1 5h-6l-2-1z" fill="#B4B4B5"/>
<path transform="translate(1006,896)" d="m0 0h8v3h-3v10h-2v-10l-3-1z" fill="#B1B1B2"/>
<path transform="translate(853,845)" d="m0 0h7v3h-2v7h-3l-1-7z" fill="#B4B4B5"/>
<path transform="translate(1100,682)" d="m0 0h7v6l-4 1-3-2z" fill="#FAF6E3"/>
<path transform="translate(1055,524)" d="m0 0h6l1 2v7h-2l-1-6h-2l-1 6h-2v-8z" fill="#AAB1BA"/>
<path transform="translate(1054,1119)" d="m0 0h2v2h2v-2h5l1 4-1 3h-2l-1-4-2 4h-2z" fill="#B3B4B5"/>
<path transform="translate(1040,1022)" d="m0 0 4 1-1 2h2v5l-4 1-2-3v-5z" fill="#A2BBE2"/>
<path transform="translate(1172,939)" d="m0 0h5v3h-2l3 2-1 4h-5v-3h3l-4-2z" fill="#AAAFB6"/>
<path transform="translate(782,733)" d="m0 0 4 1 1 2 5 1-5 4 1 5 5 2v1l-8-1v-13h-3z" fill="#FDFDFD"/>
<path transform="translate(807,726)" d="m0 0h8l4 3-1 3-4-1-4-2h-3z" fill="#2698F3"/>
<path transform="translate(1051,587)" d="m0 0 4 1 1 5-2 2-4-1-1-4z" fill="#FDFDFD"/>
<path transform="translate(1047,586)" d="m0 0h3v6l1 4h-2v6h-2z" fill="#AEAFB0"/>
<path transform="translate(1154,1366)" d="m0 0h4l5 2v3l-4-1-1-1-2 2h-2-3v-4z" fill="#D7D7D8"/>
<path transform="translate(1016,983)" d="m0 0h2l1 6 9-1-1 4h-8l-3-4z" fill="#ADB0B3"/>
<path transform="translate(829,838)" d="m0 0 6 1 2 2v3h-6l-3-3z" fill="#FAF6E3"/>
<path transform="translate(1168,730)" d="m0 0 4 2 4 3 5-1 5-4 2 1-5 6-6 1-9-7z" fill="#32373C"/>
<path transform="translate(950,668)" d="m0 0h2l-1 9h-8l6-7z" fill="#ADD2B7"/>
<path transform="translate(828,1365)" d="m0 0h5v3l-1 3-7 1-1-3 2-2z" fill="#BFD3EA"/>
<path transform="translate(1109,1009)" d="m0 0h3l1 4-3 4-5-3 2-4z" fill="#B5B6B7"/>
<path transform="translate(890,915)" d="m0 0h2l1 7v2h3v2h-5l-1-1v-5h-2v-3h2z" fill="#B4B4B5"/>
<path transform="translate(858,909)" d="m0 0 5 1 3 2v2l-7 1-3-1z" fill="#FAF6E3"/>
<path transform="translate(993,892)" d="m0 0h3v7l-3 5h-11l1-2 9 1v-5l1-1z" fill="#B1CDF8"/>
<path transform="translate(1209,837)" d="m0 0h3l1 5-6 4-3-4 1-3 4 2z" fill="#B0B1B2"/>
<path transform="translate(862,623)" d="m0 0 3 1v9h-4v-9z" fill="#B0BAB4"/>
<path transform="translate(975,522)" d="m0 0 2 2v9h1l2-7h1l1 7-3 2-6-1 1-6z" fill="#FDFDFD"/>
<path transform="translate(869,1286)" d="m0 0h2v2l4 2h-3l2 1v2h2v-2h3l-1 3-4 1-4-2z" fill="#B2B3B4"/>
<path transform="translate(828,1285)" d="m0 0 5 1v5l-5 2v-2l-2-1v-4z" fill="#FBF9EF"/>
<path transform="translate(1072,1190)" d="m0 0 8 3v6h-3l-3-3v-4h-2z" fill="#FDFDFD"/>
<path transform="translate(1162,939)" d="m0 0 2 1v6h3v-6l2-1v9h-6l-1-1z" fill="#ABAEB1"/>
<path transform="translate(1097,682)" d="m0 0 2 1v8h4v2h-7v-10z" fill="#B5B5B6"/>
<path transform="translate(1e3 651)" d="m0 0 2 1 1 3h2v-4h3v2l2 1-4 4h-6z" fill="#748FA5"/>
<path transform="translate(1060,947)" d="m0 0 4 2 3 3h3l-2 6-3-1-5-8z" fill="#80B6F6"/>
<path transform="translate(1006,910)" d="m0 0 3 1v7l-3 3-2-3 1-6z" fill="#A9D8B6"/>
<path transform="translate(847,845)" d="m0 0 2 1v8h4v2h-6l-1-1v-9z" fill="#B4B4B5"/>
<path transform="translate(1014,656)" d="m0 0 4 1-4 1zm7-1h2v7l-1 1h-8l-1-5 2 3 1-2 3 1v2h2z" fill="#B6B7B8"/>
<path transform="translate(1172,653)" d="m0 0 4 1 3 2 1 7h-2l-1-6-2-1v6l-3 1zm1 1 1 3 1-3z" fill="#B0B1B2"/>
<path transform="translate(984,587)" d="m0 0 4 2-1 5-3 1-2-1v-6z" fill="#FDFDFD"/>
<path transform="translate(1101,1366)" d="m0 0h2v5h2v-5h2v7l-5 1-2-6z" fill="#B3B3B4"/>
<path transform="translate(859,1367)" d="m0 0h2l-1 6-5 1-2-3 1-3z" fill="#8BB7EC"/>
<path transform="translate(849,1365)" d="m0 0h10v3l-3 1-2-1-1 3v-3l-2 1-2 3z" fill="#A4B8D7"/>
<path transform="translate(825,1305)" d="m0 0 3 3 2-3h2l-3 9h-2l-3-8z" fill="#B4B4B5"/>
<path transform="translate(1137,937)" d="m0 0h3l1 4v7l-4-1-1-8z" fill="#A3ADB8"/>
<path transform="translate(1033,896)" d="m0 0 3 1v11l-3 1z" fill="#B3B3B4"/>
<path transform="translate(1047,807)" d="m0 0h2v10h-2v-6h-2v5h-2l-1-5 4-2z" fill="#B5B6B7"/>
<path transform="translate(1036,656)" d="m0 0 4 2 3 1v3l2 1h-10l2-1z" fill="#C1C8CE"/>
<path transform="translate(940,580)" d="m0 0h6l3 3-3 1h-6l-4 1 2-4z" fill="#B3B3B4"/>
<path transform="translate(983,524)" d="m0 0 2 1v6h3v-6h1v8h-6l-1-2v-6z" fill="#A8B1BD"/>
<path transform="translate(793,494)" d="m0 0m-2 1 2 1-12 12-1-3 8-8z" fill="#92ACC1"/>
<path transform="translate(1084,1365)" d="m0 0 6 1v7h-2l-1-5h-2l-1 5h-2v-7z" fill="#B0B1B2"/>
<path transform="translate(991,1365)" d="m0 0 4 1 1 1v6l-4-1h2v-2l-5 1z" fill="#B1B1B2"/>
<path transform="translate(1078,1214)" d="m0 0 5 1 2 6-5 1-2-2 2-1-2-2z" fill="#B3B4B5"/>
<path transform="translate(1156,1169)" d="m0 0h1l3 9 3 3-5-1-5-7v-2z" fill="#4E6577"/>
<path transform="translate(964,1148)" d="m0 0h5l1 7h-6z" fill="#B7B7B8"/>
<path transform="translate(1043,1098)" d="m0 0 4 1v10h-3l-1-2z" fill="#B1B1B2"/>
<path transform="translate(1e3 1098)" d="m0 0 4 1v10h-3l-2-9z" fill="#B2B2B3"/>
<path transform="translate(991,1096)" d="m0 0 2 1v12l-3-1v-11z" fill="#B3B4B5"/>
<path transform="translate(1187,1049)" d="m0 0 2 2-1 3-7 1v-2l-2-1 3-2z" fill="#B4B4B5"/>
<path transform="translate(1013,972)" d="m0 0h1l1 15-3 3v-16z" fill="#6F93B0"/>
<path transform="translate(796,849)" d="m0 0 2 1v4l4-1v6l1 3h-3v-2h-2l-1-5-2-2z" fill="#AFBFB4"/>
<path transform="translate(1156,839)" d="m0 0 3 4-2 1v2l2 1-4-1h-3l1-4h-5v-2h7z" fill="#FDFDFD"/>
<path transform="translate(1082,544)" d="m0 0h2l1 4 2-3h2l-3 9-3-3-2-6z" fill="#A8B1BC"/>
<path transform="translate(932,1366)" d="m0 0h2v5h3v-5h2v7l-5 1-2-2z" fill="#AFB0B1"/>
<path transform="translate(906,1305)" d="m0 0h2v7l3-1 1-6h1v9h-6l-1-1z" fill="#B1B1B2"/>
<path transform="translate(1065,1119)" d="m0 0h5l-1 7-5-1v-5z" fill="#B8B8B9"/>
<path transform="translate(1082,1096)" d="m0 0 2 1v11h-3v-11z" fill="#B8B8B9"/>
<path transform="translate(1074,1077)" d="m0 0 2 1v11l-3-1-1-9z" fill="#B2B2B3"/>
<path transform="translate(962,1049)" d="m0 0 3 1v9l-4-2-1-4v-3z" fill="#BDBDBE"/>
<path transform="translate(910,932)" d="m0 0 4 2-2 1-1 8h-3v-10z" fill="#B2B2B3"/>
<path transform="translate(989,923)" d="m0 0 2 1-1 4-5 3-1-1v-5z" fill="#FDFDFD"/>
<path transform="translate(813,841)" d="m0 0 5 2 1 3-2 2-4-1-2-3z" fill="#FAF6E3"/>
<path transform="translate(999,809)" d="m0 0 4 2 1 2-5 1v2l2 1-4-1-1-4z" fill="#B9BABB"/>
<path transform="translate(984,767)" d="m0 0h3v11l-3 1z" fill="#B2B2B3"/>
<path transform="translate(985,654)" d="m0 0 2 1 1 7-4 1-1 2h-2l-1-2-4-1 1-3 1 1 8 1z" fill="#1E425F"/>
<path transform="translate(884,653)" d="m0 0h2l2 8-6 1v-6z" fill="#B3B4B5"/>
<path transform="translate(919,651)" d="m0 0 4 1 3 5-1 4h-3v-8l-4 1z" fill="#C7CED4"/>
<path transform="translate(1217,612)" d="m0 0h2l-1 5 2 5-5-2-2 2-1-4 3-2z" fill="#ACBAB1"/>
<path transform="translate(1194,612)" d="m0 0h2l-1 4-5 2-3 3-3-3 9-5z" fill="#ABAFB2"/>
<path transform="translate(826,580)" d="m0 0h5l2 5-1 1h-5z" fill="#FDFDFD"/>
<path transform="translate(1138,1363)" d="m0 0h3v8l3 1v2l-4-1-2-3z" fill="#B7B7B8"/>
<path transform="translate(1176,1363)" d="m0 0 3 3v7h-3l-2-5 1-4z" fill="#B1B2B3"/>
<path transform="translate(834,1338)" d="m0 0 5 1-1 5-5-1v-4z" fill="#CADDF9"/>
<path transform="translate(896,1305)" d="m0 0h5l-2 1v9l-2 3-1-1z" fill="#AEAFB0"/>
<path transform="translate(1014,1289)" d="m0 0h2v2h2v-2l4 2v3l-6-1v3h-2z" fill="#B3B4B5"/>
<path transform="translate(1115,1023)" d="m0 0h4l3 5-1 4-3-1-1-4-2-1z" fill="#B6B6B7"/>
<path transform="translate(956,865)" d="m0 0h5l1 4h-3v2l-4-1-2-4z" fill="#B2B3B4"/>
<path transform="translate(909,789)" d="m0 0h2v3h2v4h-6l-1-6z" fill="#B4B5B6"/>
<path transform="translate(880,772)" d="m0 0h5v3l1 3h-8z" fill="#B2B3B4"/>
<path transform="translate(869,651)" d="m0 0h3v2h2l-1 3h-2v5l-2 1-1-9z" fill="#7894AA"/>
<path transform="translate(1159,619)" d="m0 0h16l-2 3-7-1-5 1-2-1z" fill="#ADB6B0"/>
<path transform="translate(1068,544)" d="m0 0h4l-2 10-3-1v-7z" fill="#ACB5C0"/>
<path transform="translate(899,514)" d="m0 0h7l-1 6h-6v-3z" fill="#B4B5B6"/>
<path transform="translate(836,1364)" d="m0 0h1v8l-4 2h-4l-1 2 1-4 5-1 1-5z" fill="#A2BADE"/>
<path transform="translate(963,1313)" d="m0 0 5 2 2 4-3-1h-7l-2 1 2-4z" fill="#FDFDFD"/>
<path transform="translate(816,1290)" d="m0 0 2 1-1 4h-7l-2-4z" fill="#94BAEB"/>
<path transform="translate(1106,1275)" d="m0 0h13l1 2-10 1-5-1z" fill="#ACADAE"/>
<path transform="translate(1169,1258)" d="m0 0 3 1-1 4-6-1-3 2 1-5z" fill="#2196F3"/>
<path transform="translate(1183,1202)" d="m0 0h2v5h-11l4-3z" fill="#B5C7BA"/>
<path transform="translate(972,1028)" d="m0 0h2l-1 4-4 3h-3l-1-3z" fill="#FAF6E3"/>
<path transform="translate(1077,862)" d="m0 0h7v4l-7 1-1-3z" fill="#FAF6E3"/>
<path transform="translate(1115,682)" d="m0 0 2 1v10h-3l-1-6z" fill="#AFB0B1"/>
<path transform="translate(894,653)" d="m0 0 3 1-3 3h2v6l-4-1v-8z" fill="#B3B4B5"/>
<path transform="translate(942,1363)" d="m0 0 3 3v7h-3l-2-7z" fill="#B2B2B3"/>
<path transform="translate(1077,1363)" d="m0 0 3 2v9l-3-1v-5l-3-1z" fill="#B2B3B4"/>
<path transform="translate(1008,1247)" d="m0 0h3l2 6h-7l1-5z" fill="#BBBBBC"/>
<path transform="translate(980,1051)" d="m0 0h1l1 5 5-1v5l-6-1-2-2v-5z" fill="#AFB0B1"/>
<path transform="translate(1148,899)" d="m0 0 3 1-3 9h-2l-1-6 1-3z" fill="#B3B3B4"/>
<path transform="translate(1123,899)" d="m0 0 4 1-3 9h-2v-9z" fill="#B3B3B4"/>
<path transform="translate(1128,838)" d="m0 0 4 1-2 6 2 1-4 1-1-1v-7z" fill="#B5B6B7"/>
<path transform="translate(1017,809)" d="m0 0 5 1v5l-2-1v-2h-2v6l-2 1v-9z" fill="#B4B4B5"/>
<path transform="translate(1123,682)" d="m0 0 2 1 1 7 3 1v2h-6l-1-3z" fill="#AEAFB0"/>
<path transform="translate(1168,649)" d="m0 0h2l1 13h-3l1-7h-2v-5z" fill="#B3B3B4"/>
<path transform="translate(1159,593)" d="m0 0 2 1 1 7h-2l-1 2-2-2v-6z" fill="#B2B2B3"/>
<path transform="translate(907,585)" d="m0 0h6l2 1v3l-6-1-4 4v-5z" fill="#B1B1B2"/>
<path transform="translate(976,524)" d="m0 0h5l-2 9h-3z" fill="#A4B7D4"/>
<path transform="translate(1007,1288)" d="m0 0 3 1 1 6-5 1v-7z" fill="#BEBEBF"/>
<path transform="translate(1048,1255)" d="m0 0h4l3 1-1 4h-3-3l-1-4z" fill="#BABABB"/>
<path transform="translate(1016,1194)" d="m0 0 7 2-2 5h-4z" fill="#BCBCBD"/>
<path transform="translate(1200,1145)" d="m0 0 4 2 3 2-1 3-4 1-2-5z" fill="#B2B3B4"/>
<path transform="translate(948,1098)" d="m0 0 4 2-1 6 1 3-4-1-1-8z" fill="#B0B0B1"/>
<path transform="translate(1079,1077)" d="m0 0 3 2v10l-3-1-1-10z" fill="#B0B1B2"/>
<path transform="translate(1033,915)" d="m0 0 6 2-4 4-8 4 2-4 4-2z" fill="#FAF6E3"/>
<path transform="translate(997,882)" d="m0 0h1v7l-6-3h-10l2-2h11z" fill="#FDFDFD"/>
<path transform="translate(1024,810)" d="m0 0 4 2 1 5-5-1-2-1 1-4z" fill="#D3D3D1"/>
<path transform="translate(879,732)" d="m0 0 4 1 1 5-2 2h-3z" fill="#C0C0C1"/>
<path transform="translate(1119,682)" d="m0 0 2 1v10h-3v-10z" fill="#AEAFB0"/>
<path transform="translate(1131,682)" d="m0 0h2l1 8 3 1v2h-6z" fill="#AEAFB0"/>
<path transform="translate(920,653)" d="m0 0h2v8l6-1v3h-6l-2-3-1-6z" fill="#577187"/>
<path transform="translate(931,622)" d="m0 0h10l3 2-1 3-1-3h-10l-1 2h-2l-1 3-1-4z" fill="#82B1C4"/>
<path transform="translate(1212,608)" d="m0 0 3 1 1 8-4 1-1-7z" fill="#8FAFC1"/>
<path transform="translate(1025,542)" d="m0 0 2 1v9h5l-1 2h-5l-1-1z" fill="#A7ACB0"/>
<path transform="translate(916,1303)" d="m0 0 3 1v10h-3l-1-10z" fill="#B2B2B3"/>
<path transform="translate(854,1280)" d="m0 0m-7 1h7l-2 4-1 7h-1l-1-7z" fill="#FDFDFD"/>
<path transform="translate(935,877)" d="m0 0m-1 1 5 2 1 4-4 1-3-4z" fill="#CECECF"/>
<path transform="translate(808,848)" d="m0 0 4 1 1 4-3 2-3-2z" fill="#FAF6E3"/>
<path transform="translate(1210,758)" d="m0 0h7l3 3-4 4-1-5h-1l-1 5-2-4z" fill="#B6B7B8"/>
<path transform="translate(819,733)" d="m0 0h1l1 11-17-1v-1h15z" fill="#2998F0"/>
<path transform="translate(1182,730)" d="m0 0 4 1-6 5-5-1-1-2 7-2z" fill="#CDCDCE"/>
<path transform="translate(1186,698)" d="m0 0h6l1 5-6-2v2h-2z" fill="#B9B9BA"/>
<path transform="translate(1127,650)" d="m0 0 3 1v2h3l1 3-7 1z" fill="#8797A4"/>
<path transform="translate(1105,590)" d="m0 0 3 1 3 3v2l4 1-1 4h-2v-4l-5-2z" fill="#4A657B"/>
<path transform="translate(1024,526)" d="m0 0 1 2 2 1h-2v2h5l-1 3h-5l-1-1v-6z" fill="#A6B4C8"/>
<path transform="translate(1215,1227)" d="m0 0 6 1v3l-6 1-3-3z" fill="#2196F3"/>
<path transform="translate(1017,1223)" d="m0 0h3 3l-1 5h-6z" fill="#BABABB"/>
<path transform="translate(964,1177)" d="m0 0 2 1 3-1 1 5-6 1-1-5z" fill="#BDBDBE"/>
<path transform="translate(1076,983)" d="m0 0 4 4-2 2h-3v2h-2l1-6z" fill="#B9B9BA"/>
<path transform="translate(1131,939)" d="m0 0h5l-2 3-1 6-4-1z" fill="#A9B1BD"/>
<path transform="translate(1066,929)" d="m0 0 5 3v3l-2-1h-6l-2 2 1-4z" fill="#FDFDFD"/>
<path transform="translate(855,915)" d="m0 0 3 1v9h-3z" fill="#B2B3B4"/>
<path transform="translate(1120,859)" d="m0 0 1 3-3 8h-8v-1l6-2z" fill="#BABABB"/>
<path transform="translate(1095,859)" d="m0 0 3 1v9h-3z" fill="#B3B4B5"/>
<path transform="translate(1150,841)" d="m0 0 4 1-1 4h-6v-4z" fill="#B4B4B5"/>
<path transform="translate(809,734)" d="m0 0 6 1v3h-2v2l-4-1z" fill="#77B3F5"/>
<path transform="translate(1167,655)" d="m0 0h2v7l-5 1v-5l3-1z" fill="#838B92"/>
<path transform="translate(813,647)" d="m0 0h6l-2 2-2 5-4-1z" fill="#ACB0B5"/>
<path transform="translate(1118,543)" d="m0 0 3 1v10l-3-1-1-9z" fill="#97ABBC"/>
<path transform="translate(984,523)" d="m0 0h9l-2 5-1-4h-3v7h-2z" fill="#FDFDFD"/>
<path transform="translate(1050,1096)" d="m0 0h1l1 7 1 3h-2v3h-2v-12z" fill="#B3B3B4"/>
<path transform="translate(979,1099)" d="m0 0 3 1-3 3-1 6h-2v-9z" fill="#B1B2B3"/>
<path transform="translate(1178,1048)" d="m0 0h2v2l2 1-2 1 1 2h-6l-1-4z" fill="#B8B8B9"/>
<path transform="translate(969,977)" d="m0 0 6 1 2 3-4-1v3h-4z" fill="#C2C3C4"/>
<path transform="translate(1061,926)" d="m0 0 8 2-4 3-4 1-2-2z" fill="#3B9FF3"/>
<path transform="translate(1097,902)" d="m0 0h6v5h-6l-1-4z" fill="#FDFDFD"/>
<path transform="translate(1127,859)" d="m0 0 3 1-1 5-4 1v-6z" fill="#C5C5C6"/>
<path transform="translate(1090,859)" d="m0 0 4 2-1 4-4 1-1-5z" fill="#C6C6C7"/>
<path transform="translate(1010,789)" d="m0 0 3 1-2 10h-2l-1-10z" fill="#B0B1B2"/>
<path transform="translate(849,656)" d="m0 0 2 3 2 2 9-1v2l-11 1-2-3z" fill="#A7B0B8"/>
<path transform="translate(839,650)" d="m0 0h1v8l3-1 1 2-2 4-3-1z" fill="#B5B6B7"/>
<path transform="translate(1179,656)" d="m0 0h4v4l4 2h-8z" fill="#68A3D2"/>
<path transform="translate(1086,651)" d="m0 0 2 1v2l2 1-1 6-3 4z" fill="#ADAEAF"/>
<path transform="translate(824,648)" d="m0 0h1v11l-3-1v-8z" fill="#1D1C1C"/>
<path transform="translate(931,625)" d="m0 0 3 1-3 5-4 1 1-4z" fill="#1D1C1C"/>
<path transform="translate(1125,544)" d="m0 0 2 1-2 7h5l-1 2-5-1-1-1v-6z" fill="#A0ADBA"/>
<path transform="translate(1097,1366)" d="m0 0h4v6l-3-2-4 1v-4z" fill="#D0D0D1"/>
<path transform="translate(1154,1295)" d="m0 0 12 2v2h-10v-3z" fill="#AAC0B4"/>
<path transform="translate(859,1284)" d="m0 0h3v11l-2 1-2-4 2-4z" fill="#2196F3"/>
<path transform="translate(1011,1275)" d="m0 0 2 1v4l-6 1-1-5 2 1 1-1z" fill="#BABABB"/>
<path transform="translate(1016,1204)" d="m0 0 6 1v4h-5z" fill="#B3B3B4"/>
<path transform="translate(1028,1099)" d="m0 0 4 2 2 6h-2v2h-2l-1-6-2-2z" fill="#B2B3B4"/>
<path transform="translate(1084,1076)" d="m0 0h2l1 10-1 2h-2l-1-9z" fill="#AFB0B1"/>
<path transform="translate(916,1049)" d="m0 0h2l1 2v7l-3 1z" fill="#A7B2C3"/>
<path transform="translate(1155,1047)" d="m0 0h3v8h-4v-7z" fill="#BCBCBD"/>
<path transform="translate(1055,994)" d="m0 0 5 2v2l2 1h-3l-1 3h-3v-2h2z" fill="#B9B9BA"/>
<path transform="translate(904,934)" d="m0 0 4 1v5h-3l-4 1v-2h3v-3l-3-1z" fill="#FCFCFA"/>
<path transform="translate(1091,899)" d="m0 0 3 1-2 3-1 6h-2l-1-6 1-3z" fill="#B1B2B3"/>
<path transform="translate(837,846)" d="m0 0h1v8h-5v-2h3l-3-4z" fill="#FDFDFD"/>
<path transform="translate(1121,805)" d="m0 0 1 2-1 7h-3l-1-8z" fill="#AEBBCF"/>
<path transform="translate(814,724)" d="m0 0 5 2 3 3-1 4-1-4-5-2-6-1v-1z" fill="#79B3F3"/>
<path transform="translate(1119,649)" d="m0 0 5 1 1 3h-6l-1 2-1-4z" fill="#95A2AE"/>
<path transform="translate(984,585)" d="m0 0h6v7l-2 1-2-5-3-2z" fill="#B0B1B2"/>
<path transform="translate(999,1407)" d="m0 0h6v2l-7 2-3 3v-4z" fill="#7FA8C9"/>
<path transform="translate(885,1304)" d="m0 0 1 3-2 1-1 6h-2v-9z" fill="#B0B1B2"/>
<path transform="translate(853,1285)" d="m0 0h2v6l5-2-2 5-4-1-1-1z" fill="#81B6F3"/>
<path transform="translate(1087,1223)" d="m0 0 3 1-1 4-2 2-4-1 1-3 2 1z" fill="#BDBDBE"/>
<path transform="translate(1208,1154)" d="m0 0 4 1v3l-3 2-4-1 1-3 1 1z" fill="#B8B8B9"/>
<path transform="translate(954,1102)" d="m0 0 2 4 5-1-1 4h-5l-2-2z" fill="#AEAEAF"/>
<path transform="translate(974,1053)" d="m0 0 5 2-3 4h-5l-1-3 5 1z" fill="#B1B2B3"/>
<path transform="translate(1e3 1021)" d="m0 0 2 2-3 4h-2v-2l-3-1 1-2z" fill="#B2B3B4"/>
<path transform="translate(995,976)" d="m0 0h2l1 4-1 1v7l1 3-3-1-1-12z" fill="#2196F3"/>
<path transform="translate(1077,933)" d="m0 0h1v7l-4 1 1-7z" fill="#2196F3"/>
<path transform="translate(959,862)" d="m0 0h4v2l2 1 1 2-4 1-4-2-2-2h3z" fill="#BEBEBF"/>
<path transform="translate(1090,809)" d="m0 0 4 1 2 1-1 4-4-1-1-2-2 1z" fill="#B7B8B9"/>
<path transform="translate(989,807)" d="m0 0h6v2h-2v8l-2-1-1-7z" fill="#B7B7B8"/>
<path transform="translate(877,788)" d="m0 0 4 1v2h-3l1 3 2 2-5-1v-6z" fill="#B7B8B9"/>
<path transform="translate(1120,771)" d="m0 0h6l2 2v3l-4-1-5-2z" fill="#DCE8FA"/>
<path transform="translate(810,753)" d="m0 0 2 1-1 1 2 1 1-3 1 4-2 2h-4l-1-3z" fill="#E3ECFB"/>
<path transform="translate(1186,679)" d="m0 0 7 2-1 3-5 1z" fill="#B2B2B3"/>
<path transform="translate(782,678)" d="m0 0 5 2-1 4-3 1-1-1z" fill="#FAF6E3"/>
<path transform="translate(876,585)" d="m0 0h5l2 3v3l-4-1v-2h-4z" fill="#AEAFB0"/>
<path transform="translate(1156,530)" d="m0 0 4 1-1 4h-4l-1-4z" fill="#5AA9F4"/>
</svg>
