<?xml version="1.0" encoding="UTF-8"?>
<svg version="1.1" viewBox="0 0 2048 2048" width="1280" height="1280" xmlns="http://www.w3.org/2000/svg">
<path transform="translate(0)" d="m0 0h2048v2048h-2048z" fill="#FEFEFE"/>
<path transform="translate(799,972)" d="m0 0 11 1 10 5 7 8 3 7v17l-4 8-8 8-10 4h-12l-10-4-8-7-4-8-1-3v-13l4-10 5-6 9-5z" fill="#6C7A94"/>
<path transform="translate(1230,976)" d="m0 0h12l8 4 7 8 3 7v15l-4 10-7 7-6 3h-14l-7-4-4-3v28l-1 1h-8v-75h8v7l8-6z" fill="#6C7A94"/>
<path transform="translate(1069,953)" d="m0 0h8l7 10 12 22 7 12v2h3l2-6 12-21 10-17 2-2h8l1 1v74l-1 1h-8l-1-2v-43l1-12-3 3-14 25-8 13h-5l-8-13-14-25-1-3h-2l1 8v48l-1 1h-8l-1-4v-71z" fill="#6C7A94"/>
<path transform="translate(1e3 972)" d="m0 0 11 1 8 4 7 8 3 6-1 4-36 15 2 4 4 3 3 1h8l6-3 5-4 9 6-4 6-10 6-4 1h-12l-10-4-6-5-5-9-1-4v-14l4-10 4-5 8-5z" fill="#6C7A94"/>
<path transform="translate(1167,976)" d="m0 0h15l8 4 6 7 2 9v30l-1 3h-8v-7l-7 6-4 2h-14l-7-4-4-5-1-3v-9l3-6 6-5 5-2 10-1 10 2 3 1-3-9-7-4h-8l-6 3-2 3-5-1-4-2 2-4 5-5z" fill="#6C7A94"/>
<path transform="translate(1282,976)" d="m0 0h14l8 5 4 5-3 3-5 1-6-5h-11l-4 3v6l7 3 15 4 5 4 3 5v9l-4 6-8 5h-16l-6-3-7-7-1-4 6-3 3 1 5 6 2 1h11l4-2 1-6-4-4-17-5-8-6-2-5 1-8 4-5z" fill="#6C7A94"/>
<path transform="translate(1230,984)" d="m0 0h8l6 3 6 7 1 3v12l-4 8-8 5h-9l-6-3-5-6-2-7 1-10 4-7 5-4z" fill="#FEFEFE"/>
<path transform="translate(964,943)" d="m0 0h11v85h-12v-84z" fill="#6C7A94"/>
<path transform="translate(797,984)" d="m0 0h10l6 4 4 5 1 3v11l-5 8-7 4h-8l-6-3-5-6-2-6 1-10 4-6 4-3z" fill="#FEFEFE"/>
<path transform="translate(1171 1e3)" d="m0 0h10l7 3 1 3-4 8-5 4-3 1h-9l-5-3-2-5 2-6 5-4z" fill="#FEFEFE"/>
<path transform="translate(1007,983)" d="m0 0 8 1 4 4-1 3-22 9h-2v-6l4-6 6-4z" fill="#FEFEFE"/>
</svg>
